<?xml version="1.0" encoding="UTF-8" standalone="no"?>
<svg
   xmlns:dc="http://purl.org/dc/elements/1.1/"
   xmlns:cc="http://creativecommons.org/ns#"
   xmlns:rdf="http://www.w3.org/1999/02/22-rdf-syntax-ns#"
   xmlns:svg="http://www.w3.org/2000/svg"
   xmlns="http://www.w3.org/2000/svg"
   xmlns:sodipodi="http://sodipodi.sourceforge.net/DTD/sodipodi-0.dtd"
   xmlns:inkscape="http://www.inkscape.org/namespaces/inkscape"
   width="510.309"
   height="469.523"
   viewBox="0 0 510.309 469.523"
   fill="none"
   version="1.1"
   id="svg61">
  <metadata
     id="metadata67">
    <rdf:RDF>
      <cc:Work
         rdf:about="">
        <dc:format>image/svg+xml</dc:format>
        <dc:type
           rdf:resource="http://purl.org/dc/dcmitype/StillImage" />
        <dc:title></dc:title>
      </cc:Work>
    </rdf:RDF>
  </metadata>
  <defs
     id="defs65" />
  <sodipodi:namedview
     pagecolor="#ffffff"
     bordercolor="#666666"
     borderopacity="1"
     objecttolerance="10"
     gridtolerance="10"
     guidetolerance="10"
     inkscape:pageopacity="0"
     inkscape:pageshadow="2"
     inkscape:window-width="1920"
     inkscape:window-height="1009"
     id="namedview63"
     showgrid="false"
     inkscape:zoom="1.5811326"
     inkscape:cx="256"
     inkscape:cy="231.56108"
     inkscape:window-x="-8"
     inkscape:window-y="-8"
     inkscape:window-maximized="1"
     inkscape:current-layer="svg61" />
  <path
     d="m 255.15607,438.66256 c -29.59758,0 -49.16397,-20.53146 -68.67986,-54.33387 C 166.96032,350.52629 70.595757,183.61836 51.079868,149.81595 31.563979,116.01355 23.566179,88.802851 38.364409,63.171063 53.16264,37.539275 80.727276,30.86004 119.75905,30.86004 c 39.03178,0 231.76002,0 270.7918,0 39.03178,0 66.59597,6.679235 81.3942,32.311023 14.79823,25.631788 6.80043,52.842487 -12.71546,86.644887 -19.51589,33.80241 -115.88001,200.71034 -135.3959,234.51274 -19.51589,33.80241 -39.08228,54.33387 -68.67874,54.33387 z"
     fill="#202124"
     id="path2" />
  <mask
     id="mask0_2_547"
     maskUnits="userSpaceOnUse"
     x="56"
     y="82"
     width="400"
     height="365">
    <path
       d="m 256.001,446.355 c -26.375,0 -43.811,-18.296 -61.202,-48.418 C 177.408,367.815 91.5356,219.08 74.1446,188.958 56.7536,158.836 49.6266,134.588 62.8136,111.747 76.0006,88.906 100.564,82.954 135.346,82.954 c 34.782,0 206.526,0 241.308,0 34.782,0 59.345,5.952 72.532,28.793 13.187,22.841 6.06,47.089 -11.331,77.211 C 420.464,219.08 334.592,367.815 317.201,397.937 299.81,428.059 282.374,446.355 256,446.355 Z"
       fill="#ffffff"
       id="path4" />
  </mask>
  <g
     mask="url(#mask0_2_547)"
     id="g21"
     transform="matrix(1.1221833,0,0,1.1221833,-32.123962,-62.229551)">
    <path
       d="M 344.016,285.041 C 286.329,262.165 262.181,187.482 259,153 h -3 v 246 l 193,-78.636 c -10.958,-2.243 -47.296,-12.447 -104.984,-35.323 z"
       fill="#c6ff00"
       id="path7" />
    <path
       d="M 167.984,285.041 C 225.671,262.165 249.819,187.482 253,153 h 3 V 399 L 63,320.364 c 10.9579,-2.243 47.296,-12.447 104.984,-35.323 z"
       fill="#c6ff00"
       id="path9" />
    <path
       d="M 297.5,284.816 C 270.3,261.979 260.5,187.423 259,153 h -3 v 245.58 l 91,-78.502 c -5.167,-2.238 -22.3,-12.425 -49.5,-35.262 z"
       fill="#ffffff"
       id="path11" />
    <path
       d="M 214.5,284.816 C 241.7,261.979 251.5,187.423 253,153 h 3 v 245.58 l -91,-78.502 c 5.167,-2.238 22.3,-12.425 49.5,-35.262 z"
       fill="#ffffff"
       id="path13" />
    <circle
       cx="256"
       cy="153"
       r="3"
       fill="#ffffff"
       id="circle15" />
    <rect
       x="151"
       y="350"
       width="199"
       height="104"
       fill="#5f6368"
       id="rect17" />
    <path
       d="m 358.423,350.438 c -0.067,-0.422 -0.13,-0.838 -0.201,-1.257 -0.425,-2.585 -0.955,-5.139 -1.572,-7.66 -1.079,-4.405 -2.437,-8.702 -4.059,-12.865 -1.371,-3.526 -2.93,-6.956 -4.663,-10.28 -2.229,-4.268 -4.743,-8.366 -7.519,-12.263 -3.402,-4.775 -7.2,-9.249 -11.35,-13.372 -1.743,-1.732 -3.544,-3.404 -5.407,-5.006 -4.03,-3.479 -8.337,-6.648 -12.872,-9.48 0.04,-0.065 0.073,-0.136 0.114,-0.201 2.078,-3.591 4.16,-7.176 6.238,-10.766 2.034,-3.505 4.066,-7.01 6.097,-10.515 1.462,-2.516 2.923,-5.037 4.378,-7.553 0.345,-0.597 0.617,-1.215 0.821,-1.847 0.57,-1.763 0.594,-3.616 0.138,-5.339 -0.117,-0.426 -0.255,-0.843 -0.426,-1.25 -0.171,-0.407 -0.372,-0.803 -0.6,-1.185 -0.778,-1.306 -1.887,-2.44 -3.282,-3.269 -1.234,-0.733 -2.615,-1.17 -4.029,-1.296 -0.594,-0.05 -1.19,-0.045 -1.784,0.015 -0.489,0.05 -0.975,0.141 -1.457,0.267 -1.724,0.457 -3.319,1.401 -4.563,2.766 -0.446,0.493 -0.848,1.035 -1.196,1.632 -1.458,2.515 -2.92,5.036 -4.375,7.552 l -6.097,10.515 c -2.079,3.59 -4.161,7.176 -6.239,10.766 -0.228,0.392 -0.459,0.783 -0.683,1.18 -0.316,-0.126 -0.627,-0.251 -0.943,-0.371 -11.461,-4.369 -23.891,-6.759 -36.885,-6.759 -0.357,0 -0.708,0 -1.064,0.004 -11.554,0.116 -22.655,2.125 -33.009,5.73 -1.2,0.417 -2.384,0.859 -3.559,1.321 -0.21,-0.367 -0.426,-0.734 -0.637,-1.1 -2.078,-3.591 -4.161,-7.176 -6.238,-10.766 -2.033,-3.505 -4.066,-7.01 -6.098,-10.515 -1.461,-2.516 -2.921,-5.037 -4.377,-7.552 -0.346,-0.598 -0.747,-1.14 -1.195,-1.632 -1.245,-1.366 -2.84,-2.31 -4.562,-2.767 -0.482,-0.125 -0.969,-0.216 -1.46,-0.266 -0.592,-0.06 -1.19,-0.065 -1.782,-0.015 -1.415,0.121 -2.796,0.558 -4.03,1.296 -1.396,0.829 -2.499,1.963 -3.283,3.269 -0.226,0.381 -0.426,0.778 -0.597,1.185 -0.17,0.407 -0.316,0.824 -0.426,1.25 -0.457,1.723 -0.432,3.576 0.135,5.339 0.206,0.632 0.477,1.25 0.824,1.847 1.46,2.516 2.921,5.037 4.376,7.553 2.033,3.505 4.065,7.01 6.098,10.514 2.078,3.591 4.161,7.176 6.238,10.767 0.015,0.03 0.036,0.06 0.051,0.09 -4.191,2.607 -8.182,5.494 -11.945,8.652 -2.254,1.893 -4.427,3.877 -6.51,5.95 -4.145,4.123 -7.945,8.597 -11.353,13.372 -2.78,3.897 -5.295,7.989 -7.518,12.263 -1.731,3.324 -3.292,6.754 -4.663,10.28 -1.621,4.163 -2.981,8.461 -4.06,12.865 -0.617,2.521 -1.139,5.068 -1.571,7.66 -0.07,0.419 -0.136,0.841 -0.201,1.257 -0.23,1.502 -0.426,3.014 -0.592,4.536 H 359 c -0.164,-1.522 -0.362,-3.034 -0.593,-4.536 z"
       fill="#5f6368"
       id="path19" />
  </g>
  <path
     d="m 114.92693,88.527916 h -4.53362 v 4.53362 h 4.53362 z"
     fill="#ffffff"
     id="path23" />
  <path
     d="m 155.32553,225.04937 h -4.53362 v 4.53362 h 4.53362 z"
     fill="#ffffff"
     id="path25" />
  <path
     d="m 386.9969,80.287724 h -4.53362 v 4.53362 h 4.53362 z"
     fill="#ffffff"
     id="path27" />
  <path
     d="m 295.59844,191.38387 h -4.53363 v 4.53362 h 4.53363 z"
     fill="#ffffff"
     id="path29" />
  <path
     d="m 325.89626,147.51772 h -4.53362 v 4.53362 h 4.53362 z"
     fill="#ffffff"
     id="path31" />
  <path
     d="m 366.29598,186.89513 h -4.53362 v 4.53362 h 4.53362 z"
     fill="#ffffff"
     id="path33" />
  <path
     d="m 183.38011,90.387373 h -4.53362 v 4.533621 h 4.53362 z"
     fill="#ffffff"
     id="path35" />
  <path
     d="m 345.01939,157.71837 h -9.06724 v 9.06724 h 9.06724 z"
     fill="#ffffff"
     id="path37" />
  <path
     d="m 217.04561,175.6733 h -4.53362 v 4.53362 h 4.53362 z"
     fill="#ffffff"
     id="path39" />
  <path
     d="m 150.88168,134.15252 h -9.06724 v 9.06724 h 9.06724 z"
     fill="#ffffff"
     id="path41" />
  <path
     d="m 204.74648,98.242656 h -9.06724 v 9.067244 h 9.06724 z"
     fill="#ffffff"
     id="path43" />
  <path
     d="m 382.05143,166.69584 h -9.06724 v 9.06724 h 9.06724 z"
     fill="#ffffff"
     id="path45" />
  <path
     d="m 157.76179,167.08074 h -9.06724 v 9.06725 h 9.06724 z"
     fill="#ffffff"
     id="path47" />
  <path
     d="m 397.7115,117.39496 h -9.06724 v 9.06724 h 9.06724 z"
     fill="#ffffff"
     id="path49" />
  <path
     d="m 183.425,143.12999 h -9.06724 v 9.06724 h 9.06724 z"
     fill="#ffffff"
     id="path51" />
  <path
     d="m 255.15607,438.66256 c -29.59758,0 -49.16397,-20.53146 -68.67986,-54.33387 C 166.96032,350.52629 70.595757,183.61836 51.079868,149.81595 31.563979,116.01355 23.566179,88.802851 38.364409,63.171063 53.16264,37.539275 80.727276,30.86004 119.75905,30.86004 c 39.03178,0 231.76002,0 270.7918,0 39.03178,0 66.59597,6.679235 81.3942,32.311023 14.79823,25.631788 6.80043,52.842487 -12.71546,86.644887 -19.51589,33.80241 -115.88001,200.71034 -135.3959,234.51274 -19.51589,33.80241 -39.08228,54.33387 -68.67874,54.33387 z"
     stroke="#34a853"
     stroke-width="61.7201"
     stroke-miterlimit="10"
     id="path53" />
  <path
     d="m 158.77063,40.681388 c 0.96957,2.464314 1.45435,3.696471 1.45435,3.696471 0,0 -1.16483,0 -3.49448,0 -2.32965,0 -3.49448,0 -3.49448,0 0,0 -0.28279,-0.814705 -0.84837,-2.444115 l -5.29222,-14.806086 -0.98976,-3.231888 h -0.24239 l -0.88877,3.231888 -5.09022,14.806086 c -0.51172,1.62941 -0.76758,2.444115 -0.76758,2.444115 0,0 -1.18502,0 -3.55507,0 -2.35659,0 -3.53488,0 -3.53488,0 0,0 0.47805,-1.245623 1.43415,-3.73687 l 8.5847,-22.219228 c 0.76757,-2.01993 1.15136,-3.029895 1.15136,-3.029895 0,0 0.92917,0 2.7875,0 2.01993,0 3.0299,0 3.0299,0 0,0 0.39052,1.009965 1.17156,3.029895 z m -4.56504,-1.777538 h -8.30191 v -4.726636 h 6.48397 z m -8.30191,0 h -8.48371 l 1.73714,-4.726636 h 6.74657 z m 50.72492,2.625908 c 0,1.898734 0,2.848101 0,2.848101 0,0 -1.00996,0 -3.02989,0 -1.97953,0 -2.9693,0 -2.9693,0 0,0 -0.53191,-0.828171 -1.59574,-2.484513 L 178.93402,26.137893 h -0.22219 l 0.14139,4.161055 v 10.988419 c 0,2.060328 0,3.090492 0,3.090492 0,0 -1.09076,0 -3.27229,0 -2.18152,0 -3.27228,0 -3.27228,0 0,0 0,-1.030164 0,-3.090492 l -0.0202,-21.714246 c 0,-2.747105 0,-4.120657 0,-4.120657 0,0 1.15809,0 3.47428,0 2.23539,0 3.35308,0 3.35308,0 0,0 0.51845,0.821438 1.55535,2.464314 l 9.57447,15.068677 h 0.22219 l -0.1616,-4.221653 V 18.44196 c 0,-1.992998 0,-2.989496 0,-2.989496 0,0 1.0571,0 3.17129,0 2.10073,0 3.15109,0 3.15109,0 0,0 0,0.996498 0,2.989496 z m 25.44663,2.848101 h -7.13035 c -2.16806,0 -3.25209,0 -3.25209,0 0,0 0,-1.104228 0,-3.312685 V 18.785348 c 0,-2.221923 0,-3.332884 0,-3.332884 0,0 1.08403,0 3.25209,0 h 7.13035 c 4.41692,0 7.97199,1.32642 10.66523,3.979261 2.69324,2.639375 4.03986,6.127121 4.03986,10.463237 0,4.363049 -1.34662,7.870994 -4.03986,10.523835 -2.69324,2.639375 -6.24831,3.959062 -10.66523,3.959062 z m -3.75707,-22.845406 v 16.947211 h 3.37329 c 2.55857,0.02693 4.59197,-0.706975 6.10018,-2.201723 1.50822,-1.508215 2.26232,-3.608942 2.26232,-6.302182 0,-2.679773 -0.7541,-4.753568 -2.26232,-6.221384 -1.49474,-1.481282 -3.52814,-2.221922 -6.10018,-2.221922 z m 38.53353,19.734714 c 0,2.073795 0,3.110692 0,3.110692 0,0 -1.09076,0 -3.27229,0 -2.16805,0 -3.25208,0 -3.25208,0 0,0 0,-1.023431 0,-3.070293 V 18.785348 c 0,-2.221923 0,-3.332884 0,-3.332884 0,0 1.08403,0 3.25208,0 h 8.18072 c 2.8683,0 5.28548,0.84837 7.25155,2.545111 1.96606,1.696741 2.9491,3.965796 2.9491,6.807164 0,2.625909 -0.9359,4.793967 -2.80771,6.504174 -1.8718,1.696741 -4.28898,2.545112 -7.25154,2.545112 h -8.96849 v -4.726636 h 8.20091 c 1.19849,0 2.20173,-0.370321 3.0097,-1.110962 0.80797,-0.754107 1.21196,-1.730406 1.21196,-2.928898 0,-1.090762 -0.39052,-1.99973 -1.17156,-2.726905 -0.78104,-0.740641 -1.74388,-1.110962 -2.8885,-1.110962 h -4.44385 z m 8.14032,0.666577 -6.84756,-10.503635 6.88796,-0.242392 7.21115,10.523835 c 1.27929,1.777538 1.91893,2.666307 1.91893,2.666307 0,0 -1.25909,0 -3.77727,0 -2.54511,0 -3.81767,0 -3.81767,0 0,0 -0.52518,-0.814705 -1.57554,-2.444115 z m 35.0974,3.090493 c -4.16105,0 -7.72286,-1.393752 -10.68543,-4.181255 -2.94909,-2.787503 -4.42364,-6.436843 -4.42364,-10.94802 0,-4.511176 1.48128,-8.153783 4.44384,-10.92782 2.97603,-2.774037 6.53111,-4.161056 10.66523,-4.161056 4.12066,0 7.66227,1.407218 10.62483,4.221653 2.97603,2.80097 4.46405,6.423378 4.46405,10.867223 0,4.416914 -1.48128,8.046054 -4.44385,10.887422 -2.94909,2.827902 -6.49744,4.241853 -10.64503,4.241853 z m 0,-6.443576 c 2.41045,0 4.41692,-0.821438 6.01939,-2.464315 1.61595,-1.642876 2.42392,-3.716671 2.42392,-6.221384 0,-2.531645 -0.81471,-4.60544 -2.44412,-6.221384 -1.61594,-1.615944 -3.61567,-2.423916 -5.99919,-2.423916 -2.38351,0 -4.38998,0.814705 -6.01939,2.444116 -1.61594,1.615943 -2.42391,3.683005 -2.42391,6.201184 0,2.531646 0.80123,4.612173 2.40371,6.241584 1.61595,1.62941 3.62914,2.444115 6.03959,2.444115 z m 35.45763,2.484513 c 0,2.208457 0,3.312685 0,3.312685 0,0 -1.13116,0 -3.39348,0 -2.27579,0 -3.41369,0 -3.41369,0 0,0 0,-1.104228 0,-3.312685 V 18.765149 c 0,-2.208457 0,-3.312685 0,-3.312685 0,0 1.13116,0 3.39349,0 2.27578,0 3.41368,0 3.41368,0 0,0 0,1.104228 0,3.312685 z m 25.44326,3.312685 h -7.13035 c -2.16806,0 -3.25209,0 -3.25209,0 0,0 0,-1.104228 0,-3.312685 V 18.785348 c 0,-2.221923 0,-3.332884 0,-3.332884 0,0 1.08403,0 3.25209,0 h 7.13035 c 4.41691,0 7.97199,1.32642 10.66523,3.979261 2.69324,2.639375 4.03986,6.127121 4.03986,10.463237 0,4.363049 -1.34662,7.870994 -4.03986,10.523835 -2.69324,2.639375 -6.24832,3.959062 -10.66523,3.959062 z m -3.75707,-22.845406 v 16.947211 h 3.37328 c 2.55858,0.02693 4.59198,-0.706975 6.10019,-2.201723 1.50821,-1.508215 2.26232,-3.608942 2.26232,-6.302182 0,-2.679773 -0.75411,-4.753568 -2.26232,-6.221384 -1.49475,-1.481282 -3.52814,-2.221922 -6.10019,-2.221922 z"
     fill="#e9f3eb"
     id="path55" />
  <path
     d="m 233.36888,345.40352 c 0,2.80546 0,4.20819 0,4.20819 0,0 -1.42068,0 -4.26429,0 -2.76731,0 -4.15208,0 -4.15208,0 0,0 0,-1.40273 0,-4.20819 V 280.9902 l -13.97118,9.98743 c -1.83253,1.30959 -2.74935,1.96382 -2.74935,1.96382 0,0 -0.72942,-1.12218 -2.18826,-3.36655 -1.42068,-2.13214 -2.13215,-3.19822 -2.13215,-3.19822 0,-0.037 0.97294,-0.7485 2.91768,-2.13215 l 16.49609,-11.83903 c 2.99287,-2.20734 4.48874,-3.31044 4.48874,-3.31044 0,0 0.52406,0 1.57105,0 2.65621,0 3.98375,0 3.98375,0 0,0 0,1.3657 0,4.09597 z m 11.78517,-37.31259 4.60095,-34.78768 c 0.37369,-2.69324 0.5611,-4.03986 0.5611,-4.03986 0,0 1.21532,0 3.64709,0 h 33.21663 c 2.73027,0 4.09597,0 4.09597,0 0,0 0,1.32754 0,3.98375 0,2.84249 0,4.26429 0,4.26429 0,0 -1.3657,0 -4.09597,0 h -30.35506 l -3.70321,27.71793 0.22444,0.0561 c 1.90771,-1.94474 4.35744,-3.49785 7.3503,-4.65706 2.99286,-1.19737 6.41552,-1.79549 10.26798,-1.79549 7.25716,0 13.35398,2.48788 18.29159,7.46251 4.9376,4.93761 7.4064,11.1287 7.4064,18.57214 0,7.63084 -2.44972,13.97118 -7.3503,19.021 -4.86242,5.0128 -11.24091,7.51863 -19.13322,7.51863 -7.06975,0 -13.0364,-1.79549 -17.89882,-5.38648 -4.86242,-3.59098 -8.06065,-7.79917 -9.59467,-12.62456 -0.71034,-2.50584 -1.06607,-3.75931 -1.06607,-3.75931 0,0 1.29051,-0.48591 3.87153,-1.45884 2.69324,-1.00997 4.03986,-1.51495 4.03986,-1.51495 0,0 0.35573,1.32754 1.06607,3.98375 0.97293,2.95471 3.10508,5.79832 6.39645,8.52859 3.32951,2.73028 7.63084,4.09597 12.9051,4.09597 5.76017,0 10.21187,-1.64624 13.35398,-4.9376 3.14212,-3.32952 4.71317,-7.76215 4.71317,-13.29788 0,-5.31129 -1.75846,-9.63169 -5.27426,-12.96121 -3.47876,-3.32952 -8.00453,-4.99372 -13.57841,-4.99372 -3.32952,0 -6.15294,0.46795 -8.47249,1.40273 -2.31955,0.89775 -4.26429,2.16918 -5.83535,3.81542 -1.45884,1.68328 -2.18826,2.52492 -2.18826,2.52492 0,0 -1.32754,-0.54202 -3.98375,-1.62717 -2.61805,-1.047 -3.92764,-1.57106 -3.92764,-1.57106 0,0 0.14925,-1.17829 0.44887,-3.53487 z"
     fill="#e9f3eb"
     id="path57" />
  <path
     d="m 255.28961,73.554624 c -7.51189,0 -13.60086,5.913906 -13.60086,13.20922 v 16.292976 c 0,1.40834 1.14126,2.55073 2.55072,2.55073 1.40834,0 2.55073,-1.14127 2.55073,-2.55073 v -4.392223 c 0,-2.81668 2.28364,-5.100323 5.10032,-5.100323 h 6.80043 c 2.81668,0 5.10032,2.283643 5.10032,5.100323 v 4.392223 c 0,1.40834 1.14126,2.55073 2.55073,2.55073 1.40946,0 2.55072,-1.14127 2.55072,-2.55073 V 86.763844 c 0,-7.295314 -6.08897,-13.20922 -13.60086,-13.20922 z"
     fill="#e9f3eb"
     id="path59" />
</svg>
