<?xml version="1.0" encoding="UTF-8"?>
<svg version="1.1" xmlns="http://www.w3.org/2000/svg" width="167" height="206">
<path d="M0 0 C1.54300781 -0.03867188 1.54300781 -0.03867188 3.1171875 -0.078125 C6.59502244 0.30127518 8.34935507 1.1458058 11.125 3.25 C12.70703125 5.22265625 12.70703125 5.22265625 13.9375 7.3125 C14.35644531 8.00472656 14.77539062 8.69695313 15.20703125 9.41015625 C16.125 11.25 16.125 11.25 16.125 13.25 C17.29071533 13.24214478 17.29071533 13.24214478 18.47998047 13.23413086 C21.98664549 13.21339844 25.49329763 13.20035179 29 13.1875 C30.83498047 13.17493164 30.83498047 13.17493164 32.70703125 13.16210938 C34.45693359 13.15727539 34.45693359 13.15727539 36.2421875 13.15234375 C37.86036377 13.14448853 37.86036377 13.14448853 39.51123047 13.13647461 C42.125 13.25 42.125 13.25 44.125 14.25 C44.49625 13.198125 44.49625 13.198125 44.875 12.125 C46.70087937 7.92547744 48.78082318 4.47197893 52.1875 1.375 C57.95050261 -0.83210738 63.91696868 -0.52474783 69.6875 1.5 C72.38976744 3.44008945 73.01449469 4.1697296 74.125 7.25 C74.31667624 9.98138647 74.40445463 12.58549222 74.375 15.3125 C74.38660156 16.39241211 74.38660156 16.39241211 74.3984375 17.49414062 C74.38437918 21.27934363 74.2725969 23.02860465 72.125 26.25 C72.86943359 26.98089844 72.86943359 26.98089844 73.62890625 27.7265625 C82.56742869 37.05519123 89.14824314 49.12336538 89.25 62.25 C89.21846189 63.58361135 89.18053449 64.91717225 89.125 66.25 C89.82625 66.20359375 90.5275 66.1571875 91.25 66.109375 C97.7372996 65.86257556 102.91883286 66.08035482 108.125 70.25 C112.03047714 74.38409044 113.41339096 78.07633894 113.4375 83.75 C113.35835319 85.25152805 113.26306703 86.75273977 113.125 88.25 C111.805 88.58 110.485 88.91 109.125 89.25 C110.445 89.91 111.765 90.57 113.125 91.25 C113.31835685 96.94218097 113.49689803 102.6345692 113.66210938 108.32763672 C113.72027611 110.26168068 113.7823916 112.19561028 113.84863281 114.12939453 C113.94350109 116.91938432 114.02385712 119.70948566 114.1015625 122.5 C114.13375885 123.35553467 114.1659552 124.21106934 114.1991272 125.0925293 C114.36492059 131.83418684 114.07130642 138.8765011 109.3125 144.125 C108.83167969 144.67929688 108.35085937 145.23359375 107.85546875 145.8046875 C104.09648337 148.94424639 100.0819769 149.53021854 95.3125 149.875 C93.84876953 149.98714844 93.84876953 149.98714844 92.35546875 150.1015625 C91.61941406 150.15054688 90.88335937 150.19953125 90.125 150.25 C90.02703125 150.91386719 89.9290625 151.57773438 89.828125 152.26171875 C88.25196937 161.56918948 88.25196937 161.56918948 84.125 165.25 C78.00141978 168.94966305 72.13346885 168.56072029 65.125 168.25 C65.19400513 169.17897095 65.19400513 169.17897095 65.2644043 170.12670898 C65.46567566 172.97933841 65.63922598 175.83303852 65.8125 178.6875 C65.92174805 180.14833008 65.92174805 180.14833008 66.03320312 181.63867188 C66.41619363 188.37479905 66.3239202 195.38250666 61.81201172 200.83740234 C55.81672361 206.23530909 49.67243388 206.57316416 41.96875 206.44921875 C38.74288531 206.22323098 36.09796174 205.51350874 33.125 204.25 C29.71824668 203.09842141 29.26264234 203.19244048 25.6875 204.6875 C19.13768312 207.3491297 10.77635538 207.60951792 4.125 205.0625 C-0.40792469 202.323858 -3.93089827 199.2404397 -5.875 194.25 C-6.53223716 185.60566045 -5.75764765 176.85581463 -4.875 168.25 C-5.58785156 168.28480469 -6.30070312 168.31960937 -7.03515625 168.35546875 C-14.41950562 168.56417849 -19.17335339 168.05124608 -25.1875 163.5 C-28.45332525 159.14556633 -28.9840504 154.54803196 -28.875 149.25 C-29.67164062 149.28480469 -30.46828125 149.31960937 -31.2890625 149.35546875 C-42.24822205 149.63544728 -42.24822205 149.63544728 -46.875 146.25 C-50.68816928 142.34306426 -52.99413144 139.35772803 -53.02026367 133.84790039 C-53.02664352 132.93677994 -53.03302338 132.02565948 -53.03959656 131.08692932 C-53.04126579 129.60723915 -53.04126579 129.60723915 -53.04296875 128.09765625 C-53.04629715 127.0865831 -53.04962555 126.07550995 -53.05305481 125.03379822 C-53.0581236 122.89273535 -53.06046315 120.75166457 -53.06030273 118.6105957 C-53.0624887 115.32945786 -53.0806436 112.04865641 -53.09960938 108.76757812 C-53.10254336 106.69010532 -53.10452812 104.61263091 -53.10546875 102.53515625 C-53.11265427 101.55072037 -53.11983978 100.56628448 -53.12724304 99.55201721 C-53.12416641 98.6377446 -53.12108978 97.72347198 -53.11791992 96.78149414 C-53.12005745 95.57475792 -53.12005745 95.57475792 -53.12223816 94.34364319 C-52.875 92.25 -52.875 92.25 -50.875 89.25 C-51.535 88.92 -52.195 88.59 -52.875 88.25 C-53.41823146 81.73122243 -52.94164576 76.56436661 -48.875 71.25 C-44.49157232 66.90872066 -40.46941894 65.95906044 -34.375 65.9375 C-32.54043011 66.01696776 -30.70614735 66.11266395 -28.875 66.25 C-28.85373047 65.06857422 -28.85373047 65.06857422 -28.83203125 63.86328125 C-28.26472466 50.9072254 -24.41054184 40.97889959 -15.875 31.25 C-15.070625 30.239375 -14.26625 29.22875 -13.4375 28.1875 C-12.921875 27.548125 -12.40625 26.90875 -11.875 26.25 C-12.19984375 25.72277344 -12.5246875 25.19554688 -12.859375 24.65234375 C-14.15534808 21.58686895 -14.14035817 19.13370352 -14.125 15.8125 C-14.13273437 14.14380859 -14.13273437 14.14380859 -14.140625 12.44140625 C-13.81257362 8.49996544 -12.95913297 5.56981405 -10.4375 2.5 C-7.24480559 -0.05415552 -3.92209514 0.05868472 0 0 Z M-9.875 13.25 C-8.875 15.25 -8.875 15.25 -8.875 15.25 Z M84.125 62.25 C84.125 63.9 84.125 65.55 84.125 67.25 C84.455 67.25 84.785 67.25 85.125 67.25 C85.125 65.6 85.125 63.95 85.125 62.25 C84.795 62.25 84.465 62.25 84.125 62.25 Z M-24.875 63.25 C-24.875 64.9 -24.875 66.55 -24.875 68.25 C-24.545 68.25 -24.215 68.25 -23.875 68.25 C-23.875 66.6 -23.875 64.95 -23.875 63.25 C-24.205 63.25 -24.535 63.25 -24.875 63.25 Z M-48.875 87.25 C-48.875 100.45 -48.875 113.65 -48.875 127.25 C-48.545 127.25 -48.215 127.25 -47.875 127.25 C-47.875 114.05 -47.875 100.85 -47.875 87.25 C-48.205 87.25 -48.535 87.25 -48.875 87.25 Z M-1.875 168.25 C-1.875 173.86 -1.875 179.47 -1.875 185.25 C-1.545 185.25 -1.215 185.25 -0.875 185.25 C-0.875 179.64 -0.875 174.03 -0.875 168.25 C-1.205 168.25 -1.535 168.25 -1.875 168.25 Z " fill="#AB7B5B" transform="translate(52.875,-0.25)"/>
<path d="M0 0 C0.33 0 0.66 0 1 0 C1.01458252 1.12905762 1.02916504 2.25811523 1.04418945 3.42138672 C1.1026212 7.65232362 1.17984724 11.88275301 1.26245117 16.11328125 C1.29549107 17.93643899 1.32358659 19.75969388 1.34643555 21.58300781 C1.07736527 37.73423179 1.07736527 37.73423179 7.375 52.125 C12.05112796 55.48707681 18.55465207 54.50891102 24 54 C25.485 53.505 25.485 53.505 27 53 C27.01417969 53.86882812 27.02835938 54.73765625 27.04296875 55.6328125 C27.12172145 63.21202561 27.12172145 63.21202561 30.4375 69.75 C34.39821637 73.22770218 36.90008078 73.23000514 42.125 73.5625 C44.04699219 73.68818359 44.04699219 73.68818359 46.0078125 73.81640625 C46.99523438 73.87699219 47.98265625 73.93757813 49 74 C48.97905273 74.64960693 48.95810547 75.29921387 48.93652344 75.96850586 C48.85254417 78.95800833 48.801084 81.94726158 48.75 84.9375 C48.71648438 85.95908203 48.68296875 86.98066406 48.6484375 88.03320312 C48.56188436 94.80598623 49.3523227 100.1873572 53 106 C57.5772318 110.35926838 60.60347645 111.29755158 66.75 111.21875 C71.71728524 110.73581949 74.78006871 107.55302763 78 104 C78.99 102.515 78.99 102.515 80 101 C80.38671875 101.55429688 80.7734375 102.10859375 81.171875 102.6796875 C81.69265625 103.40414062 82.2134375 104.12859375 82.75 104.875 C83.26046875 105.59429687 83.7709375 106.31359375 84.296875 107.0546875 C86.6303719 109.72001194 88.62624113 110.78162059 92.11328125 111.3359375 C97.95517402 111.43970114 101.27286269 110.49808161 106 107 C108.89930416 103.11085561 109.40204019 100.19063987 109.51171875 95.38671875 C109.56489258 93.5159668 109.56489258 93.5159668 109.61914062 91.60742188 C109.64169922 90.31384766 109.66425781 89.02027344 109.6875 87.6875 C109.72166016 86.37458984 109.75582031 85.06167969 109.79101562 83.70898438 C109.87339272 80.47274149 109.94258016 77.23676615 110 74 C111.02480469 73.96261719 112.04960938 73.92523438 113.10546875 73.88671875 C114.46618062 73.82102921 115.82685611 73.75458291 117.1875 73.6875 C117.86103516 73.66494141 118.53457031 73.64238281 119.22851562 73.61914062 C123.60865627 73.38410869 126.5006438 72.66801743 130 70 C133.40637628 65.01209188 133.66385434 59.86516227 134 54 C134.680625 54.165 135.36125 54.33 136.0625 54.5 C142.2278546 55.54942206 146.65111251 55.44706082 152 52 C155.37683732 48.25809919 157.10281739 45.83377878 157.20532227 40.82568359 C157.22526749 39.96494232 157.24521271 39.10420105 157.26576233 38.21737671 C157.28247482 37.28712677 157.29918732 36.35687683 157.31640625 35.3984375 C157.3475779 33.97103745 157.3475779 33.97103745 157.37937927 32.51480103 C157.44488133 29.46827568 157.5037628 26.42166257 157.5625 23.375 C157.60568459 21.31249084 157.64929886 19.24999063 157.69335938 17.1875 C157.8005634 12.12509046 157.90182902 7.06259245 158 2 C159.32 2 160.64 2 162 2 C164.127989 4.127989 163.30846947 8.83525251 163.38671875 11.78515625 C163.42500542 13.11963051 163.42500542 13.11963051 163.46406555 14.48106384 C163.5162017 16.37166362 163.56561282 18.26234015 163.61254883 20.15307617 C163.68656839 23.02633721 163.7774284 25.89874108 163.86914062 28.77148438 C163.9177099 30.60934773 163.9652672 32.44723815 164.01171875 34.28515625 C164.05530769 35.56375267 164.05530769 35.56375267 164.09977722 36.86817932 C164.23928772 43.5951557 163.93311566 50.64104922 159.1875 55.875 C158.70667969 56.42929688 158.22585937 56.98359375 157.73046875 57.5546875 C153.97148337 60.69424639 149.9569769 61.28021854 145.1875 61.625 C144.21167969 61.69976562 143.23585937 61.77453125 142.23046875 61.8515625 C141.49441406 61.90054688 140.75835937 61.94953125 140 62 C139.85304687 62.99580078 139.85304687 62.99580078 139.703125 64.01171875 C138.12696937 73.31918948 138.12696937 73.31918948 134 77 C127.87641978 80.69966305 122.00846885 80.31072029 115 80 C115.04600342 80.61931396 115.09200684 81.23862793 115.1394043 81.87670898 C115.34067566 84.72933841 115.51422598 87.58303852 115.6875 90.4375 C115.76033203 91.41138672 115.83316406 92.38527344 115.90820312 93.38867188 C116.29119363 100.12479905 116.1989202 107.13250666 111.68701172 112.58740234 C105.69172361 117.98530909 99.54743388 118.32316416 91.84375 118.19921875 C88.61788531 117.97323098 85.97296174 117.26350874 83 116 C79.59324668 114.84842141 79.13764234 114.94244048 75.5625 116.4375 C69.01268312 119.0991297 60.65135538 119.35951792 54 116.8125 C49.46707531 114.073858 45.94410173 110.9904397 44 106 C43.34276284 97.35566045 44.11735235 88.60581463 45 80 C44.28714844 80.03480469 43.57429688 80.06960937 42.83984375 80.10546875 C35.45549438 80.31417849 30.70164661 79.80124608 24.6875 75.25 C21.42167475 70.89556633 20.8909496 66.29803196 21 61 C20.20335938 61.03480469 19.40671875 61.06960937 18.5859375 61.10546875 C7.62677795 61.38544728 7.62677795 61.38544728 3 58 C-0.80414178 54.10231375 -3.11426189 51.11004212 -3.16113281 45.61376953 C-3.17074036 44.70587677 -3.1803479 43.79798401 -3.19024658 42.86257935 C-3.19449646 41.87925629 -3.19874634 40.89593323 -3.203125 39.8828125 C-3.20882507 38.87411102 -3.21452515 37.86540955 -3.22039795 36.82614136 C-3.229855 34.68928072 -3.23638472 32.55240544 -3.24023438 30.41552734 C-3.2499399 27.14524916 -3.28095692 23.87559933 -3.3125 20.60546875 C-3.31902993 18.53125374 -3.32428044 16.45703423 -3.328125 14.3828125 C-3.3404718 13.4035379 -3.3528186 12.42426331 -3.36553955 11.41531372 C-3.36253845 10.50111664 -3.35953735 9.58691956 -3.35644531 8.64501953 C-3.36009094 7.84274933 -3.36373657 7.04047913 -3.36749268 6.21389771 C-2.91046227 3.46059502 -1.85039648 2.05398776 0 0 Z " fill="#61401A" transform="translate(3,88)"/>
<path d="M0 0 C5.55882353 -0.37058824 5.55882353 -0.37058824 7.5625 1.3125 C8.036875 1.869375 8.51125 2.42625 9 3 C9.763125 3.37125 10.52625 3.7425 11.3125 4.125 C18.64387636 9.23991374 22.56180634 19.03243022 24.6015625 27.49609375 C24.99777906 29.98604294 25.10008622 32.29422359 25.0625 34.8125 C25.05347656 35.60269531 25.04445312 36.39289062 25.03515625 37.20703125 C25.02355469 37.79871094 25.01195312 38.39039063 25 39 C25.70125 38.95359375 26.4025 38.9071875 27.125 38.859375 C33.6122996 38.61257556 38.79383286 38.83035482 44 43 C47.90547714 47.13409044 49.28839096 50.82633894 49.3125 56.5 C49.23335319 58.00152805 49.13806703 59.50273977 49 61 C47.35 60.67 45.7 60.34 44 60 C43.731875 58.9275 43.46375 57.855 43.1875 56.75 C42.1300568 53.41070569 41.389443 51.48502072 39 49 C38.01 48.67 37.02 48.34 36 48 C36 47.34 36 46.68 36 46 C34.741875 45.95875 33.48375 45.9175 32.1875 45.875 C31.12595703 45.84019531 31.12595703 45.84019531 30.04296875 45.8046875 C27.68640281 45.86745538 27.68640281 45.86745538 25 48 C22.3125 47.625 22.3125 47.625 20 47 C20.04640625 46.27296875 20.0928125 45.5459375 20.140625 44.796875 C20.62941543 31.18057013 15.62697547 21.1681902 8.0625 10.1875 C5.31928451 7.27802902 2.31669204 5.23238887 -1 3 C-0.67 2.01 -0.34 1.02 0 0 Z " fill="#CAB197" transform="translate(117,27)"/>
<path d="M0 0 C2.62205316 1.8824997 3.5804115 2.6644814 4.4375 5.75 C4.5152346 8.08203812 4.52717728 10.41839059 4.4375 12.75 C2.7875 12.75 1.1375 12.75 -0.5625 12.75 C-1.5525 10.77 -2.5425 8.79 -3.5625 6.75 C-7.17242379 7.40585189 -7.17242379 7.40585189 -10.5625 8.75 C-10.5625 8.09 -10.5625 7.43 -10.5625 6.75 C-11.34625 7.41 -12.13 8.07 -12.9375 8.75 C-15.5625 10.75 -15.5625 10.75 -17.5625 10.75 C-17.995625 11.86375 -17.995625 11.86375 -18.4375 13 C-19.38552644 15.31739797 -20.41095911 17.52917115 -21.5625 19.75 C-22.48933594 19.58757813 -23.41617188 19.42515625 -24.37109375 19.2578125 C-29.44503737 18.53533399 -34.50947514 18.60446947 -39.625 18.625 C-40.59244141 18.62113281 -41.55988281 18.61726563 -42.55664062 18.61328125 C-47.33730935 18.61982563 -51.86291235 18.75143669 -56.5625 19.75 C-58.2125 16.45 -59.8625 13.15 -61.5625 9.75 C-60.5725 9.09 -59.5825 8.43 -58.5625 7.75 C-55.875 8.625 -55.875 8.625 -53.5625 9.75 C-53.5625 10.41 -53.5625 11.07 -53.5625 11.75 C-52.39678467 11.74214478 -52.39678467 11.74214478 -51.20751953 11.73413086 C-47.70085451 11.71339844 -44.19420237 11.70035179 -40.6875 11.6875 C-38.85251953 11.67493164 -38.85251953 11.67493164 -36.98046875 11.66210938 C-35.23056641 11.65727539 -35.23056641 11.65727539 -33.4453125 11.65234375 C-31.82713623 11.64448853 -31.82713623 11.64448853 -30.17626953 11.63647461 C-27.5625 11.75 -27.5625 11.75 -25.5625 12.75 C-25.315 12.04875 -25.0675 11.3475 -24.8125 10.625 C-22.98662063 6.42547744 -20.90667682 2.97197893 -17.5 -0.125 C-11.73699739 -2.33210738 -5.77053132 -2.02474783 0 0 Z " fill="#DEC4AC" transform="translate(122.5625,1.25)"/>
<path d="M0 0 C6.52280702 0.62719298 6.52280702 0.62719298 9 2.5625 C11.95697483 4.68782566 14.44455415 4.19047031 18 4 C19.32 4 20.64 4 22 4 C22.598125 3.67 23.19625 3.34 23.8125 3 C26.95330997 1.56420116 29.59509584 1.74778488 33 2 C35.59200129 4.59200129 35.29802368 5.77522229 35.3125 9.375 C35.32925781 10.33148438 35.34601563 11.28796875 35.36328125 12.2734375 C34.94701056 15.39770571 34.17198213 16.74970121 32 19 C29.6875 19.5625 29.6875 19.5625 27 19 C25.55709798 17.68535594 24.11458459 16.37025159 22.6796875 15.046875 C19.49796392 13.06384728 16.5231209 14.24917096 13 15 C12.01 15 11.02 15 10 15 C9.21625 15.33 8.4325 15.66 7.625 16 C4.78030661 17.08369272 3.00821765 17.47498173 0 17 C-2.28276734 15.18952935 -2.90092778 13.73964875 -3.28515625 10.87109375 C-3.42707815 7.12558968 -3.42047034 4.7183035 -1.5 1.4375 C-0.7575 0.7259375 -0.7575 0.7259375 0 0 Z " fill="#82A23E" transform="translate(67,80)"/>
<path d="M0 0 C0.66 0 1.32 0 2 0 C2.33 0.66 2.66 1.32 3 2 C6.94727588 2.17942163 9.5980513 2.09350689 13 0 C13.33 0.66 13.66 1.32 14 2 C16.31 2 18.62 2 21 2 C21.33 1.34 21.66 0.68 22 0 C25 1 25 1 27 3 C27.66 3 28.32 3 29 3 C29 4.32 29 5.64 29 7 C31.31 7.66 33.62 8.32 36 9 C36 9.33 36 9.66 36 10 C39.3 10 42.6 10 46 10 C46.33 9.34 46.66 8.68 47 8 C47.99 7.67 48.98 7.34 50 7 C51.37195574 5.70644173 52.71182656 4.37701298 54 3 C54.495 3.99 54.495 3.99 55 5 C51.8639351 9.88857176 49.7229445 13.12903737 44 15 C39.265287 15.68125367 35.98964625 15.50415941 31.6875 13.3125 C29.06893185 11.05931346 27.01946904 8.7961879 25 6 C24.45730469 6.56589844 23.91460937 7.13179687 23.35546875 7.71484375 C22.64003906 8.44832031 21.92460938 9.18179688 21.1875 9.9375 C20.47980469 10.66839844 19.77210937 11.39929688 19.04296875 12.15234375 C15.48883144 15.36669738 11.85327855 15.34062699 7.28125 15.28125 C2.50576211 14.69249122 -0.25015368 11.78829998 -3.4375 8.4375 C-3.953125 7.633125 -4.46875 6.82875 -5 6 C-4.67 5.01 -4.34 4.02 -4 3 C-3.01 3.33 -2.02 3.66 -1 4 C-0.67 2.68 -0.34 1.36 0 0 Z " fill="#986A4B" transform="translate(58,185)"/>
<path d="M0 0 C2.62205316 1.8824997 3.5804115 2.6644814 4.4375 5.75 C4.5152346 8.08203812 4.52717728 10.41839059 4.4375 12.75 C2.7875 12.75 1.1375 12.75 -0.5625 12.75 C-1.5525 10.77 -2.5425 8.79 -3.5625 6.75 C-7.17242379 7.40585189 -7.17242379 7.40585189 -10.5625 8.75 C-10.5625 8.09 -10.5625 7.43 -10.5625 6.75 C-11.34625 7.41 -12.13 8.07 -12.9375 8.75 C-15.5625 10.75 -15.5625 10.75 -17.5625 10.75 C-17.8925 11.74 -18.2225 12.73 -18.5625 13.75 C-19.5525 14.08 -20.5425 14.41 -21.5625 14.75 C-22.2225 13.76 -22.8825 12.77 -23.5625 11.75 C-24.5525 12.245 -24.5525 12.245 -25.5625 12.75 C-23.79128603 7.7315604 -21.47020698 3.48427907 -17.5 -0.125 C-11.73699739 -2.33210738 -5.77053132 -2.02474783 0 0 Z " fill="#BEA58C" transform="translate(122.5625,1.25)"/>
<path d="M0 0 C0.33 0 0.66 0 1 0 C1.1677141 6.19287151 1.32826372 12.38587168 1.48217773 18.57910156 C1.53554579 20.68592323 1.59087104 22.79269627 1.64819336 24.89941406 C1.7302491 27.92762772 1.80526393 30.95594651 1.87890625 33.984375 C1.90594131 34.92617615 1.93297638 35.86797729 1.96083069 36.83831787 C1.98092697 37.71892883 2.00102325 38.59953979 2.02172852 39.50683594 C2.04171402 40.27960876 2.06169952 41.05238159 2.08229065 41.84857178 C2 44 2 44 1.41270447 46.12457275 C0.74356265 48.18398477 0.74356265 48.18398477 2.375 50.5 C2.91125 51.325 3.4475 52.15 4 53 C4.103125 53.721875 4.20625 54.44375 4.3125 55.1875 C4.539375 55.785625 4.76625 56.38375 5 57 C7.92914165 58.17082878 7.92914165 58.17082878 11 59 C11.66 59.66 12.32 60.32 13 61 C7.39204896 60.77110404 4.65520215 59.3841502 0.48046875 55.66796875 C-2.37686116 52.44876064 -3.2499656 49.65403216 -3.2746582 45.38671875 C-3.28419022 44.47897705 -3.29372223 43.57123535 -3.30354309 42.63598633 C-3.30263168 41.66298584 -3.30172028 40.68998535 -3.30078125 39.6875 C-3.30506638 38.68162842 -3.3093515 37.67575684 -3.31376648 36.6394043 C-3.31950486 34.51449333 -3.32001367 32.38956272 -3.31567383 30.26464844 C-3.3125117 27.0120298 -3.33598711 23.76031885 -3.36132812 20.5078125 C-3.36360092 18.44270948 -3.3643047 16.37760402 -3.36328125 14.3125 C-3.372491 13.33949951 -3.38170074 12.36649902 -3.39118958 11.36401367 C-3.38496078 10.45627197 -3.37873199 9.54853027 -3.37231445 8.61328125 C-3.37294388 7.81704346 -3.3735733 7.02080566 -3.3742218 6.20043945 C-2.90815725 3.45996089 -1.84133103 2.04761487 0 0 Z " fill="#420500" transform="translate(3,88)"/>
<path d="M0 0 C0 0.66 0 1.32 0 2 C0.66 2 1.32 2 2 2 C2 3.98 2 5.96 2 8 C1.01 7.67 0.02 7.34 -1 7 C-6.26721247 6.49560446 -10.65121655 6.37377911 -15.5 8.625 C-18.28081603 11.26677523 -19.55603222 13.46227894 -21 17 C-21.391875 17.94875 -21.78375 18.8975 -22.1875 19.875 C-22.455625 20.57625 -22.72375 21.2775 -23 22 C-24.32 22 -25.64 22 -27 22 C-27.54466394 15.4640327 -27.05001229 10.33812508 -23 5 C-16.77304178 -1.59513313 -8.33629499 -0.48845478 0 0 Z " fill="#CBBAA3" transform="translate(27,66)"/>
<path d="M0 0 C4.31199308 0.5563862 7.84026456 2.20519711 11.71875 4.0625 C16.98975037 6.22866454 22.20019366 6.18286556 27.8125 6.1875 C28.96588867 6.20586914 28.96588867 6.20586914 30.14257812 6.22460938 C37.98933148 6.24447457 44.40117039 4.63178251 51.23828125 0.70703125 C53 0 53 0 56 1 C56 1.99 56 2.98 56 4 C42.53148352 10.8846511 27.32335943 13.9574643 12.3125 9.8125 C7.9796762 8.20577624 3.43119647 6.14366604 0 3 C0 2.01 0 1.02 0 0 Z " fill="#EEE7E2" transform="translate(55,60)"/>
<path d="M0 0 C1.32 0.66 2.64 1.32 4 2 C4.19335685 7.69218097 4.37189803 13.3845692 4.53710938 19.07763672 C4.59527611 21.01168068 4.6573916 22.94561028 4.72363281 24.87939453 C4.81850109 27.66938432 4.89885712 30.45948566 4.9765625 33.25 C5.00875885 34.10553467 5.0409552 34.96106934 5.0741272 35.8425293 C5.21883263 41.72668729 5.25143749 48.22900002 1.375 53 C0.694375 53.495 0.694375 53.495 0 54 C0 52.35 0 50.7 0 49 C0.66 49 1.32 49 2 49 C2.02696365 47.20841511 2.04637917 45.41671527 2.0625 43.625 C2.07410156 42.62726563 2.08570313 41.62953125 2.09765625 40.6015625 C2.18006602 38.01567547 2.18006602 38.01567547 1 36 C0.01 36.495 0.01 36.495 -1 37 C-1.0246501 31.89136104 -1.04283607 26.78275641 -1.05493164 21.67407227 C-1.05997204 19.93480832 -1.0668043 18.19554864 -1.07543945 16.45629883 C-1.08751792 13.96174063 -1.09323108 11.46723827 -1.09765625 8.97265625 C-1.10281754 8.19036148 -1.10797882 7.40806671 -1.11329651 6.60206604 C-1.11349226 4.73432886 -1.06199694 2.86670796 -1 1 C-0.67 0.67 -0.34 0.34 0 0 Z " fill="#0D0000" transform="translate(162,89)"/>
<path d="M0 0 C2 3 2 3 1.875 5.25 C0.48016648 9.63376251 -0.97496306 13.85508961 -5.12109375 16.19921875 C-8.875245 17.24345349 -12.45511109 17.21392889 -16.3125 17.125 C-20.1178125 17.063125 -20.1178125 17.063125 -24 17 C-24 22.94 -24 28.88 -24 35 C-24.33 35 -24.66 35 -25 35 C-25 27.08 -25 19.16 -25 11 C-17.8125 10.6875 -17.8125 10.6875 -15.57739258 10.61206055 C-11.26792387 10.37287194 -8.41092774 9.66203401 -5 7 C-3.93753473 5.03247172 -2.92862192 3.03412421 -2 1 C-1.34 0.67 -0.68 0.34 0 0 Z " fill="#65441D" transform="translate(138,151)"/>
<path d="M0 0 C2.5625 2.125 2.5625 2.125 4 5 C4.08154726 8.99581592 3.50505321 10.46688828 0.75 13.375 C-2.31254143 15.18468357 -3.53405086 15.77983856 -7 15 C-9.875 12.9375 -9.875 12.9375 -12 10 C-12 6.48044581 -11.63108355 4.15079941 -9.9375 1.0625 C-6.7235125 -0.70000928 -3.50343338 -0.74571072 0 0 Z " fill="#C32E2F" transform="translate(87,135)"/>
<path d="M0 0 C2.5 1.625 2.5 1.625 4 4 C4.60817046 7.64902278 4.51417751 9.26828585 2.375 12.3125 C-0.57951586 14.41176127 -2.36924173 15 -6 15 C-8.875 13.5625 -8.875 13.5625 -11 11 C-11.74884833 7.48182577 -11.63893782 4.27787564 -10 1 C-6.7370473 -0.63147635 -3.51440821 -0.6293407 0 0 Z " fill="#C32D2E" transform="translate(87,108)"/>
<path d="M0 0 C0.66 0 1.32 0 2 0 C2.391875 0.9075 2.78375 1.815 3.1875 2.75 C5.16030677 6.28744662 6.6217087 7.80905795 10 10 C13.24629115 10.51799439 13.24629115 10.51799439 16.625 10.3125 C18.31496094 10.27576172 18.31496094 10.27576172 20.0390625 10.23828125 C23.05566904 10.11428228 23.05566904 10.11428228 26 9 C26 12.3 26 15.6 26 19 C25.34 18.01 24.68 17.02 24 16 C23.34 16.33 22.68 16.66 22 17 C15.24073227 17.76638538 9.55056266 17.13282858 4 13 C2.125 10.5 2.125 10.5 1 8 C0.5875 7.319375 0.175 6.63875 -0.25 5.9375 C-1.1709445 3.55839337 -0.8440534 2.36334952 0 0 Z " fill="#68461E" transform="translate(4,132)"/>
<path d="M0 0 C-1.46782523 3.48705571 -3.38872666 5.42775661 -6.1875 7.9375 C-11.68321553 13.25536066 -14.71553243 19.16704014 -18 26 C-18.99 26 -19.98 26 -21 26 C-21.98120464 22.94736336 -21.98120464 21.05263664 -21 18 C-20.34 18 -19.68 18 -19 18 C-18.34 16.35 -17.68 14.7 -17 13 C-16.01 13 -15.02 13 -14 13 C-12.7100233 10.10878259 -12.7100233 10.10878259 -13.75 7.625 C-14 5 -14 5 -12.125 2.1875 C-7.97426064 -0.71801755 -4.90732774 -0.48111056 0 0 Z " fill="#DFC6AC" transform="translate(50,27)"/>
<path d="M0 0 C5.55882353 -0.37058824 5.55882353 -0.37058824 7.5625 1.3125 C8.036875 1.869375 8.51125 2.42625 9 3 C9.78375 3.4125 10.5675 3.825 11.375 4.25 C14.90956813 6.60637876 17.46810007 8.96946717 19 13 C18.82656828 16.49923995 18.05282803 19.66716222 17 23 C14.86231472 20.4042393 12.88847966 17.82732335 11.0625 15 C7.73123914 10.15452965 3.63386193 6.57469349 -1 3 C-0.67 2.01 -0.34 1.02 0 0 Z " fill="#D6BFA4" transform="translate(117,27)"/>
<path d="M0 0 C2.8992226 0.46761655 3.86675182 0.86675182 6 3 C8.13399701 2.64433383 10.03116671 1.98866665 12.0625 1.25 C13.0215625 1.12625 13.0215625 1.12625 14 1 C15.75 2.4375 15.75 2.4375 17 4 C16.34 4 15.68 4 15 4 C14.67 4.99 14.34 5.98 14 7 C13.01 7 12.02 7 11 7 C10.67 7.99 10.34 8.98 10 10 C8.2507786 10.08142927 6.50045458 10.13938541 4.75 10.1875 C3.28820312 10.23970703 3.28820312 10.23970703 1.796875 10.29296875 C-1.41203548 9.95683986 -2.61393251 9.09572742 -5 7 C-5.66 6.67 -6.32 6.34 -7 6 C-7 5.01 -7 4.02 -7 3 C-5.5459375 2.5359375 -5.5459375 2.5359375 -4.0625 2.0625 C-1.15934208 1.30476658 -1.15934208 1.30476658 0 0 Z " fill="#A77C5E" transform="translate(94,186)"/>
<path d="M0 0 C1.5 1.375 1.5 1.375 3 3 C3 3.66 3 4.32 3 5 C4.27617188 5.17015625 5.55234375 5.3403125 6.8671875 5.515625 C8.5365967 5.75947129 10.20586044 6.00431481 11.875 6.25 C12.71675781 6.35957031 13.55851562 6.46914062 14.42578125 6.58203125 C15.23144531 6.70449219 16.03710938 6.82695312 16.8671875 6.953125 C17.61081543 7.05786133 18.35444336 7.16259766 19.12060547 7.27050781 C21 8 21 8 22.24609375 9.671875 C23.20830686 12.64326885 23.22478141 15.17317106 23.1953125 18.296875 C23.18886719 19.50214844 23.18242188 20.70742187 23.17578125 21.94921875 C23.15902344 23.20347656 23.14226563 24.45773438 23.125 25.75 C23.11597656 27.01972656 23.10695313 28.28945312 23.09765625 29.59765625 C23.07409005 32.73196093 23.04118832 35.86588541 23 39 C22.67 39 22.34 39 22 39 C22 30.42 22 21.84 22 13 C19.834375 13.12375 17.66875 13.2475 15.4375 13.375 C7.38609677 13.36685081 7.38609677 13.36685081 3.6875 10.4375 C0.69562035 7.28775736 0.08694939 4.34746926 0 0 Z " fill="#9B6D4D" transform="translate(30,149)"/>
<path d="M0 0 C1.3921875 0.3403125 1.3921875 0.3403125 2.8125 0.6875 C2.8125 1.3475 2.8125 2.0075 2.8125 2.6875 C3.8953125 1.9140625 3.8953125 1.9140625 5 1.125 C8.30732857 -0.56541238 9.3456515 -0.37922261 12.8125 0.6875 C15.77557597 1.49561163 17.60582849 1.6875 20.8125 1.6875 C20.1525 3.3375 19.4925 4.9875 18.8125 6.6875 C16.5025 6.6875 14.1925 6.6875 11.8125 6.6875 C11.4825 5.6975 11.1525 4.7075 10.8125 3.6875 C10.27625 4.1825 9.74 4.6775 9.1875 5.1875 C6.21891555 7.06239544 4.25937573 6.92251425 0.8125 6.6875 C0.4825 5.6975 0.1525 4.7075 -0.1875 3.6875 C-1.1775 4.1825 -1.1775 4.1825 -2.1875 4.6875 C-2.5175 5.6775 -2.8475 6.6675 -3.1875 7.6875 C-4.5075 7.3575 -5.8275 7.0275 -7.1875 6.6875 C-6.79412881 4.40594707 -6.27463789 2.82049993 -5 0.875 C-3.1875 -0.3125 -3.1875 -0.3125 0 0 Z " fill="#ECE6E0" transform="translate(60.1875,181.3125)"/>
<path d="M0 0 C2.69374642 0.25654728 4.31699635 0.88229413 6.625 2.25 C7.285 1.59 7.945 0.93 8.625 0.25 C11.45265911 -0.04764833 13.14252139 0.00145041 15.6875 1.3125 C17.61336406 2.47456367 17.61336406 2.47456367 19.875 1.875 C20.74125 1.565625 20.74125 1.565625 21.625 1.25 C21.955 1.91 22.285 2.57 22.625 3.25 C21.5 5.25 21.5 5.25 19.625 7.25 C16.4375 7.5 16.4375 7.5 13.625 7.25 C13.295 6.26 12.965 5.27 12.625 4.25 C11.635 4.25 10.645 4.25 9.625 4.25 C9.295 5.24 8.965 6.23 8.625 7.25 C3.20961538 7.61923077 3.20961538 7.61923077 0.25 5.75 C-0.28625 5.255 -0.8225 4.76 -1.375 4.25 C-1.375 5.24 -1.375 6.23 -1.375 7.25 C-2.695 7.25 -4.015 7.25 -5.375 7.25 C-4.30176056 0.4528169 -4.30176056 0.4528169 0 0 Z " fill="#EDE7E2" transform="translate(138.375,117.75)"/>
<path d="M0 0 C3 1 3 1 5 3 C5.99 2.34 6.98 1.68 8 1 C11.62683775 0.62801664 13.87350101 1.14725986 17 3 C17.99 2.34 18.98 1.68 20 1 C22.5625 1.0625 22.5625 1.0625 25 2 C26.3125 4.5625 26.3125 4.5625 27 7 C24.66666667 7 22.33333333 7 20 7 C19.67 7.33 19.34 7.66 19 8 C16.5625 8.1875 16.5625 8.1875 14 8 C13.34 7.34 12.68 6.68 12 6 C9.21762345 6.40528901 9.21762345 6.40528901 7 8 C4.625 8.375 4.625 8.375 2 8 C0.125 5.6875 0.125 5.6875 -1 3 C-0.67 2.01 -0.34 1.02 0 0 Z " fill="#ECE6E0" transform="translate(7,119)"/>
<path d="M0 0 C1.32 0.66 2.64 1.32 4 2 C4 2.66 4 3.32 4 4 C4.721875 3.484375 5.44375 2.96875 6.1875 2.4375 C9 1 9 1 11.625 1.1875 C14 2 14 2 17 4 C17.66 3.34 18.32 2.68 19 2 C21.92091393 1.62552385 23.39590072 1.5625488 25.8125 3.3125 C27 5 27 5 27 8 C25.88625 7.79375 24.7725 7.5875 23.625 7.375 C22.42875 7.25125 21.2325 7.1275 20 7 C19.34 7.66 18.68 8.32 18 9 C15.06546739 8.63318342 14.13562754 8.13562754 12 6 C9.21762345 6.40528901 9.21762345 6.40528901 7 8 C4.625 8.375 4.625 8.375 2 8 C0.125 5.6875 0.125 5.6875 -1 3 C-0.67 2.01 -0.34 1.02 0 0 Z " fill="#EEE8E2" transform="translate(85,181)"/>
<path d="M0 0 C0.99 0.33 1.98 0.66 3 1 C1.50521886 4.80489745 -0.69442214 6.66190835 -4 9 C-9.33646866 10.77882289 -13.95258476 10.44723163 -19 8 C-19 11.3 -19 14.6 -19 18 C-19.33 18 -19.66 18 -20 18 C-20.05389087 16.04196493 -20.09274217 14.08351091 -20.125 12.125 C-20.14820313 11.03445312 -20.17140625 9.94390625 -20.1953125 8.8203125 C-20 6 -20 6 -18 4 C-15.390625 3.69140625 -15.390625 3.69140625 -12.25 3.5625 C-7.4219792 3.25605078 -4.25091288 2.39795086 0 0 Z " fill="#7E5435" transform="translate(156,134)"/>
<path d="M0 0 C0.66 0 1.32 0 2 0 C2.33 1.65 2.66 3.3 3 5 C2.34 5 1.68 5 1 5 C1 5.66 1 6.32 1 7 C0.01 7.33 -0.98 7.66 -2 8 C-3.20882096 10.00016466 -3.20882096 10.00016466 -4 12 C-4.66 12 -5.32 12 -6 12 C-6 14.64 -6 17.28 -6 20 C-5.01 20.33 -4.02 20.66 -3 21 C-4.32 25.62 -5.64 30.24 -7 35 C-7.33 34.34 -7.66 33.68 -8 33 C-8.99 33 -9.98 33 -11 33 C-10.78029229 20.79623545 -8.11632955 9.4324911 0 0 Z " fill="#D6BFA7" transform="translate(35,33)"/>
<path d="M0 0 C1.65 0 3.3 0 5 0 C5 1.32 5 2.64 5 4 C7.31 4.66 9.62 5.32 12 6 C12 6.33 12 6.66 12 7 C15.3 7 18.6 7 22 7 C22.33 6.34 22.66 5.68 23 5 C23.99 4.67 24.98 4.34 26 4 C27.37195574 2.70644173 28.71182656 1.37701298 30 0 C30.33 0.66 30.66 1.32 31 2 C27.8639351 6.88857176 25.7229445 10.12903737 20 12 C15.3509596 12.66892668 12.01605604 12.48848848 7.75 10.4375 C4.47350763 7.53333631 2.36259873 4.6828745 0 1 C0 0.67 0 0.34 0 0 Z " fill="#825739" transform="translate(82,188)"/>
<path d="M0 0 C5.8550995 7.05236074 6.51813655 16.15329819 6 25 C5.34 25.33 4.68 25.66 4 26 C2 25 2 25 0.9296875 21.90234375 C0.56640738 20.58390192 0.21549333 19.26200957 -0.125 17.9375 C-0.39111084 16.91619995 -0.39111084 16.91619995 -0.66259766 15.87426758 C-1.86064576 11.06082503 -2.5790005 6.92150423 -2 2 C-1.34 1.34 -0.68 0.68 0 0 Z " fill="#BDAA93" transform="translate(136,42)"/>
<path d="M0 0 C10.12055838 -0.62817259 10.12055838 -0.62817259 13.625 1.875 C16.14422002 5.76834004 16.08595201 8.35859169 16 13 C14.35 13 12.7 13 11 13 C10.690625 12.05125 10.38125 11.1025 10.0625 10.125 C7.73757505 6.60238644 7.22496633 6.46162802 3.3125 5.625 C1.87882872 5.39177118 0.4418981 5.17532514 -1 5 C-0.67 3.35 -0.34 1.7 0 0 Z " fill="#E0C7AB" transform="translate(111,1)"/>
<path d="M0 0 C1.216875 0.495 2.43375 0.99 3.6875 1.5 C9.7338745 3.55731273 15.68735913 3.26343324 22 3 C22.33 4.98 22.66 6.96 23 9 C22.67 8.34 22.34 7.68 22 7 C21.01 7.66 20.02 8.32 19 9 C13.79657671 9.73129192 8.29071625 10.27715784 3.58984375 7.65625 C1.90514534 6.18948999 0.41355863 4.72711163 -1 3 C-0.67 2.01 -0.34 1.02 0 0 Z " fill="#8B5F40" transform="translate(8,134)"/>
<path d="M0 0 C1.05960938 0.00676758 1.05960938 0.00676758 2.140625 0.01367188 C3.88545275 0.02546125 5.630237 0.04339676 7.375 0.0625 C7.375 0.7225 7.375 1.3825 7.375 2.0625 C8.035 2.0625 8.695 2.0625 9.375 2.0625 C9.375 4.0425 9.375 6.0225 9.375 8.0625 C8.385 7.7325 7.395 7.4025 6.375 7.0625 C4.20879374 7.01783595 2.04131505 7.0234673 -0.125 7.0625 C-6.29166667 7.17361111 -6.29166667 7.17361111 -9.625 6.0625 C-9.625 4.4125 -9.625 2.7625 -9.625 1.0625 C-6.55966836 -0.47016582 -3.35745728 -0.04026471 0 0 Z M-11.625 6.0625 C-10.635 6.5575 -10.635 6.5575 -9.625 7.0625 C-10.615 7.5575 -10.615 7.5575 -11.625 8.0625 C-11.625 7.4025 -11.625 6.7425 -11.625 6.0625 Z " fill="#DCC5AB" transform="translate(19.625,65.9375)"/>
<path d="M0 0 C0.66 0 1.32 0 2 0 C2.33 0.66 2.66 1.32 3 2 C6.94727588 2.17942163 9.5980513 2.09350689 13 0 C13.33 0.66 13.66 1.32 14 2 C17.02934491 2.65772428 17.02934491 2.65772428 20 3 C18.39603474 5.56634441 17.35932759 7.19642513 15 9 C10.53040512 9.87926457 6.35962572 9.27747464 1.9375 8.375 C0 7 0 7 -0.875 3.9375 C-0.91625 2.968125 -0.9575 1.99875 -1 1 C-0.67 0.67 -0.34 0.34 0 0 Z " fill="#A97E5F" transform="translate(58,185)"/>
<path d="M0 0 C1.22349455 3.67048366 1.07552246 6.99412469 0.984375 10.80859375 C0.96787903 11.57172379 0.95138306 12.33485382 0.93438721 13.12110901 C0.89691988 14.73421348 0.85637755 16.34724903 0.81298828 17.96020508 C0.75032897 20.42456175 0.7088395 22.8887141 0.66796875 25.35351562 C0.62891141 26.9219081 0.58858866 28.49026968 0.546875 30.05859375 C0.53734802 30.79411972 0.52782104 31.52964569 0.51800537 32.28746033 C0.37941041 36.44582461 -0.05087845 38.97474356 -3 42 C-3.07420941 36.66148922 -3.12863002 31.32327933 -3.16479492 25.984375 C-3.17987262 24.16856658 -3.20033798 22.35279453 -3.22631836 20.53710938 C-3.2627468 17.92568992 -3.27973638 15.31475235 -3.29296875 12.703125 C-3.30845261 11.89256653 -3.32393646 11.08200806 -3.33988953 10.24688721 C-3.34091668 6.7995658 -3.27130109 4.45456783 -1.48168945 1.45605469 C-0.74825317 0.73530762 -0.74825317 0.73530762 0 0 Z " fill="#000000" transform="translate(3,88)"/>
<path d="M0 0 C0 1.32 0 2.64 0 4 C-3.93437917 7.39960919 -7.851765 7.37263748 -12.8125 7.1875 C-13.85180664 7.16719727 -13.85180664 7.16719727 -14.91210938 7.14648438 C-16.60841265 7.11138845 -18.30431136 7.05758943 -20 7 C-20.33 7.99 -20.66 8.98 -21 10 C-21.20086443 6.28400809 -21.1519437 5.22791555 -19 2 C-15.91796875 1.26953125 -15.91796875 1.26953125 -12.1875 0.8125 C-10.96417969 0.65394531 -9.74085937 0.49539062 -8.48046875 0.33203125 C-5.61859951 0.05901342 -2.8700789 -0.07106862 0 0 Z " fill="#916345" transform="translate(133,155)"/>
<path d="M0 0 C2.27024968 -0.08097324 4.54132075 -0.13917704 6.8125 -0.1875 C8.07707031 -0.22230469 9.34164062 -0.25710937 10.64453125 -0.29296875 C14 0 14 0 15.94921875 1.51171875 C16.29597656 2.00285156 16.64273438 2.49398438 17 3 C15.63016497 6.16115776 15.0109362 6.9927092 12 9 C11.154375 8.505 10.30875 8.01 9.4375 7.5 C5.66203168 5.85252292 3.07182452 5.75569053 -1 6 C-0.67 4.02 -0.34 2.04 0 0 Z " fill="#C9B49A" transform="translate(48,1)"/>
<path d="M0 0 C0.33 0 0.66 0 1 0 C1.99 3.63 2.98 7.26 4 11 C3.34 11 2.68 11 2 11 C2.52268466 13.76276177 3.10869587 16.3260876 4 19 C8.62 19.66 13.24 20.32 18 21 C18 21.33 18 21.66 18 22 C10.68697953 22.44773595 5.68322143 21.7873027 -0.3125 17.25 C-3.50362212 12.9951705 -4.3172095 8.23395682 -4 3 C-2.68 2.67 -1.36 2.34 0 2 C0 1.34 0 0.68 0 0 Z " fill="#614117" transform="translate(28,146)"/>
<path d="M0 0 C4.35136159 0.56146601 7.90127474 2.26335865 11.83984375 4.078125 C14.20037363 5.08551207 16.4544547 5.67154254 19 6 C19 7.32 19 8.64 19 10 C24.94 10 30.88 10 37 10 C37 10.33 37 10.66 37 11 C9.56187982 11.76060497 9.56187982 11.76060497 0 3 C0 2.01 0 1.02 0 0 Z " fill="#E8E2DC" transform="translate(55,60)"/>
<path d="M0 0 C1.32 0.33 2.64 0.66 4 1 C4.25 8.625 4.25 8.625 2 12 C3.32 13.65 4.64 15.3 6 17 C4.35 16.67 2.7 16.34 1 16 C0.67 15.01 0.34 14.02 0 13 C-1.98 13 -3.96 13 -6 13 C-5.34 10.69 -4.68 8.38 -4 6 C-3.34 6 -2.68 6 -2 6 C-1.34 4.02 -0.68 2.04 0 0 Z " fill="#6A451E" transform="translate(123,14)"/>
<path d="M0 0 C0.99 0 1.98 0 3 0 C3.33 6.6 3.66 13.2 4 20 C3.01 20.33 2.02 20.66 1 21 C1.66 24.3 2.32 27.6 3 31 C-0.95086705 27.04913295 -0.95086705 27.04913295 -1.1328125 23.1640625 C-1.11565325 15.39092263 -0.79316617 7.7333702 0 0 Z " fill="#451804" transform="translate(48,168)"/>
<path d="M0 0 C1.9375 0.75 1.9375 0.75 4 2 C4.36162029 3.32594105 4.69728039 4.65938457 5 6 C5.99 6.33 6.98 6.66 8 7 C9.1875 10.5625 9.1875 10.5625 10 14 C3.50159236 14.36783439 3.50159236 14.36783439 1.125 12.625 C-1.34622868 9.05544747 -1.15364905 6.30217343 -1 2 C-0.67 1.34 -0.34 0.68 0 0 Z " fill="#6E4922" transform="translate(40,13)"/>
<path d="M0 0 C1.63001953 0.01353516 1.63001953 0.01353516 3.29296875 0.02734375 C4.12441406 0.03894531 4.95585938 0.05054688 5.8125 0.0625 C5.8125 0.3925 5.8125 0.7225 5.8125 1.0625 C2.1825 1.0625 -1.4475 1.0625 -5.1875 1.0625 C-5.084375 2.09375 -4.98125 3.125 -4.875 4.1875 C-5.28082558 9.21973716 -6.73720448 10.52594709 -10.1875 14.0625 C-11.5075 13.7325 -12.8275 13.4025 -14.1875 13.0625 C-13.69844891 5.72673358 -13.69844891 5.72673358 -11.3125 2.625 C-7.58780969 -0.11374287 -4.48416592 -0.04821684 0 0 Z " fill="#AF9A88" transform="translate(53.1875,-0.0625)"/>
<path d="M0 0 C1.32 0 2.64 0 4 0 C4.19766544 3.56201195 4.38133629 7.12461367 4.5625 10.6875 C4.61857422 11.69490234 4.67464844 12.70230469 4.73242188 13.74023438 C4.78076172 14.71669922 4.82910156 15.69316406 4.87890625 16.69921875 C4.9260376 17.59471436 4.97316895 18.49020996 5.02172852 19.4128418 C4.99942695 22.06823177 4.60392668 24.41958599 4 27 C3.67 27 3.34 27 3 27 C2.95101562 26.14535156 2.90203125 25.29070312 2.8515625 24.41015625 C2.73941406 22.75306641 2.73941406 22.75306641 2.625 21.0625 C2.55539063 19.96035156 2.48578125 18.85820312 2.4140625 17.72265625 C2.27742188 16.82417969 2.14078125 15.92570313 2 15 C1.34 14.67 0.68 14.34 0 14 C0 9.38 0 4.76 0 0 Z " fill="#050000" transform="translate(114,168)"/>
<path d="M0 0 C0 3 0 3 -1.20703125 4.5703125 C-1.73683594 5.08335937 -2.26664063 5.59640625 -2.8125 6.125 C-3.33457031 6.64320313 -3.85664062 7.16140625 -4.39453125 7.6953125 C-7.82907144 10.48639869 -11.62926513 10.26178003 -15.8359375 10.234375 C-18.60004201 9.9350135 -20.0882704 8.99484828 -22 7 C-19.25502585 5.62751293 -16.87594329 5.84870703 -13.8125 5.75 C-7.60841392 5.34418949 -4.56849264 4.14351658 0 0 Z " fill="#7F5536" transform="translate(81,190)"/>
<path d="M0 0 C1.98 0.99 1.98 0.99 4 2 C4 2.66 4 3.32 4 4 C4.99 4.33 5.98 4.66 7 5 C7 5.99 7 6.98 7 8 C8.65 8.33 10.3 8.66 12 9 C12 11.64 12 14.28 12 17 C10.35 16.67 8.7 16.34 7 16 C6.773125 14.96875 6.54625 13.9375 6.3125 12.875 C5.4910814 9.91309644 4.41147037 8.04607707 2.375 5.75 C0 3 0 3 0 0 Z " fill="#E0CDB5" transform="translate(154,71)"/>
<path d="M0 0 C-1.72649169 3.74467376 -3.45233059 5.77239363 -7 8 C-9.8125 7.75 -9.8125 7.75 -12 7 C-12.33 7.99 -12.66 8.98 -13 10 C-13.8125 7.8125 -13.8125 7.8125 -14 5 C-10.19170004 -0.71244994 -6.27983481 -0.61567008 0 0 Z " fill="#B8A08A" transform="translate(50,27)"/>
<path d="M0 0 C1.5 1.375 1.5 1.375 3 3 C3 3.66 3 4.32 3 5 C3.94875 5.268125 4.8975 5.53625 5.875 5.8125 C9 7 9 7 11 10 C12.93398926 10.50394656 12.93398926 10.50394656 15.0625 10.5625 C16.361875 10.706875 17.66125 10.85125 19 11 C19.33 11.66 19.66 12.32 20 13 C8.36910862 14.03131057 8.36910862 14.03131057 3.8125 10.4375 C0.7158275 7.28821414 0.0885791 4.42895481 0 0 Z " fill="#916445" transform="translate(30,149)"/>
<path d="M0 0 C0.66 0.33 1.32 0.66 2 1 C-1.0229455 4.45479486 -2.63400704 5.86226643 -7.29296875 6.33203125 C-10.54122796 6.31431991 -13.75921387 6.21637296 -17 6 C-17 9.63 -17 13.26 -17 17 C-17.33 17 -17.66 17 -18 17 C-18.05389087 15.04196493 -18.09274217 13.08351091 -18.125 11.125 C-18.14820313 10.03445312 -18.17140625 8.94390625 -18.1953125 7.8203125 C-18 5 -18 5 -16 3 C-13.3203125 2.65625 -13.3203125 2.65625 -10.125 2.5 C-6.1200106 2.30319462 -3.53208662 1.8373186 0 0 Z " fill="#946747" transform="translate(154,135)"/>
<path d="M0 0 C3 0.125 3 0.125 4 1.125 C4.1875 3.5625 4.1875 3.5625 4 6.125 C3.34 6.785 2.68 7.445 2 8.125 C-1.29714793 7.79528521 -2.6226839 7.5023161 -5 5.125 C-4.40256972 1.18196016 -4.1426006 0.17260836 0 0 Z " fill="#EEE8E3" transform="translate(108,39.875)"/>
<path d="M0 0 C1.65 0 3.3 0 5 0 C5 1.32 5 2.64 5 4 C7.31 4.66 9.62 5.32 12 6 C12 6.33 12 6.66 12 7 C14.97 7.33 17.94 7.66 21 8 C21 8.33 21 8.66 21 9 C8.63392734 11.01583924 8.63392734 11.01583924 4.76953125 8.61328125 C2.417169 5.84272127 1.15088595 3.45265786 0 0 Z " fill="#8D6142" transform="translate(82,188)"/>
<path d="M0 0 C1.98 0.66 3.96 1.32 6 2 C6 2.66 6 3.32 6 4 C8.31 4 10.62 4 13 4 C10.3139714 5.79068573 8.3373411 6.66055791 5.3125 7.625 C4.50425781 7.88539062 3.69601563 8.14578125 2.86328125 8.4140625 C1.94095703 8.70410156 1.94095703 8.70410156 1 9 C0.01 6.69 -0.98 4.38 -2 2 C-1.34 1.34 -0.68 0.68 0 0 Z " fill="#BAA88E" transform="translate(63,9)"/>
<path d="M0 0 C2.95839355 -0.02689449 5.91654427 -0.04678741 8.875 -0.0625 C9.71675781 -0.07087891 10.55851562 -0.07925781 11.42578125 -0.08789062 C12.23144531 -0.09111328 13.03710938 -0.09433594 13.8671875 -0.09765625 C14.98262939 -0.10551147 14.98262939 -0.10551147 16.12060547 -0.11352539 C18 0 18 0 20 1 C20 1.66 20 2.32 20 3 C13.73 3 7.46 3 1 3 C0.67 2.01 0.34 1.02 0 0 Z " fill="#F5F0EC" transform="translate(73,67)"/>
<path d="M0 0 C3 0.125 3 0.125 4 1.125 C4.1875 3.5625 4.1875 3.5625 4 6.125 C3.34 6.785 2.68 7.445 2 8.125 C-2.55555556 7.56944444 -2.55555556 7.56944444 -4 6.125 C-4.125 3.625 -4.125 3.625 -4 1.125 C-3 0.125 -3 0.125 0 0 Z " fill="#F0EBE7" transform="translate(59,39.875)"/>
<path d="M0 0 C1.32495164 4.78454757 1.58423321 9.24730038 0 14 C0 14.99 0 15.98 0 17 C-1.32 17 -2.64 17 -4 17 C-4.57374185 10.11509775 -3.4753869 5.97332123 0 0 Z " fill="#8D7B7A" transform="translate(4,71)"/>
<path d="M0 0 C0.33 0 0.66 0 1 0 C0.938125 1.216875 0.87625 2.43375 0.8125 3.6875 C0.79857115 7.63632927 1.72653507 9.7262105 4 13 C4.103125 13.721875 4.20625 14.44375 4.3125 15.1875 C4.6528125 16.0846875 4.6528125 16.0846875 5 17 C7.92914165 18.17082878 7.92914165 18.17082878 11 19 C11.66 19.66 12.32 20.32 13 21 C8.39314799 20.55703346 5.40810911 20.19902266 2 17 C0.69921875 14.4765625 0.69921875 14.4765625 -0.3125 11.625 C-0.65925781 10.68914062 -1.00601563 9.75328125 -1.36328125 8.7890625 C-2.05363802 5.76504573 -1.8904982 3.94749695 -1 1 C-0.67 0.67 -0.34 0.34 0 0 Z " fill="#5B3D12" transform="translate(3,128)"/>
<path d="M0 0 C0.33 0.66 0.66 1.32 1 2 C1.99 2 2.98 2 4 2 C4 2.99 4 3.98 4 5 C5.94009522 6.70532323 5.94009522 6.70532323 8 8 C7.34 10.31 6.68 12.62 6 15 C0.72727273 8.63636364 0.72727273 8.63636364 -1 5 C-0.6875 2.1875 -0.6875 2.1875 0 0 Z " fill="#DDC5AB" transform="translate(128,35)"/>
<path d="M0 0 C0.99 0 1.98 0 3 0 C3.66 1.98 4.32 3.96 5 6 C3.68 7.32 2.36 8.64 1 10 C0.01 9.01 -0.98 8.02 -2 7 C-2.99 7.495 -2.99 7.495 -4 8 C-2.87548273 5.0280615 -1.77706209 2.66559313 0 0 Z " fill="#C2AF9B" transform="translate(101,6)"/>
<path d="M0 0 C1.65 0 3.3 0 5 0 C5.061875 0.61875 5.12375 1.2375 5.1875 1.875 C5.828919 4.27761141 5.828919 4.27761141 8.5625 5.25 C9.366875 5.4975 10.17125 5.745 11 6 C9.75 7.5625 9.75 7.5625 8 9 C6.0625 9 6.0625 9 4 8 C0 3.77777778 0 3.77777778 0 0 Z " fill="#926647" transform="translate(53,188)"/>
<path d="M0 0 C0.66 0 1.32 0 2 0 C2.33 1.65 2.66 3.3 3 5 C2.34 5 1.68 5 1 5 C1 5.66 1 6.32 1 7 C0.01 7.33 -0.98 7.66 -2 8 C-3.20882096 10.00016466 -3.20882096 10.00016466 -4 12 C-4.66 12 -5.32 12 -6 12 C-6 13.32 -6 14.64 -6 16 C-6.66 16 -7.32 16 -8 16 C-6.2613238 9.76620972 -4.15268577 5.00451874 0 0 Z " fill="#AA9781" transform="translate(35,33)"/>
<path d="M0 0 C0.66 0 1.32 0 2 0 C2.02685095 2.47923801 2.04676547 4.9581884 2.0625 7.4375 C2.07087891 8.14455078 2.07925781 8.85160156 2.08789062 9.58007812 C2.09653588 11.38693559 2.05220011 13.19387603 2 15 C1.67 15.33 1.34 15.66 1 16 C0.76712992 17.68183948 0.58735834 19.3712416 0.4375 21.0625 C0.35371094 21.98160156 0.26992188 22.90070313 0.18359375 23.84765625 C0.12300781 24.55792969 0.06242187 25.26820313 0 26 C-0.33 26 -0.66 26 -1 26 C-1.11624638 17.26860536 -0.89115181 8.68873018 0 0 Z " fill="#010000" transform="translate(48,168)"/>
<path d="M0 0 C2.5625 0.875 2.5625 0.875 4.375 3 C5.80390574 6.45945601 5.78064153 9.16659398 5.5625 12.875 C5.2325 12.875 4.9025 12.875 4.5625 12.875 C4.500625 11.76125 4.500625 11.76125 4.4375 10.625 C3.21810022 6.7926007 0.89681327 5.93234223 -2.4375 3.875 C-2.4375 3.215 -2.4375 2.555 -2.4375 1.875 C-3.0975 1.545 -3.7575 1.215 -4.4375 0.875 C-2.4375 -0.125 -2.4375 -0.125 0 0 Z " fill="#A8967D" transform="translate(121.4375,1.125)"/>
<path d="M0 0 C5.28 0 10.56 0 16 0 C16.33 1.98 16.66 3.96 17 6 C16.67 5.34 16.34 4.68 16 4 C12.69958535 3.64086397 9.41887757 3.55541597 6.1015625 3.44140625 C3 3 3 3 0 0 Z " fill="#97694A" transform="translate(14,137)"/>
<path d="M0 0 C1.98 0 3.96 0 6 0 C6.33 0.99 6.66 1.98 7 3 C6.67 3.66 6.34 4.32 6 5 C6.66 5 7.32 5 8 5 C8.33 5.99 8.66 6.98 9 8 C4.59885603 7.49701212 2.28804981 5.91227269 -1 3 C-0.67 2.01 -0.34 1.02 0 0 Z " fill="#DBC2AA" transform="translate(117,27)"/>
<path d="M0 0 C0.33 0.66 0.66 1.32 1 2 C1.66 2 2.32 2 3 2 C2.67 3.32 2.34 4.64 2 6 C-0.31 6.66 -2.62 7.32 -5 8 C-5 6.02 -5 4.04 -5 2 C-3.35 1.34 -1.7 0.68 0 0 Z " fill="#E1C9AF" transform="translate(142,66)"/>
<path d="M0 0 C1.32 0.99 2.64 1.98 4 3 C3.67 3.99 3.34 4.98 3 6 C3.9590625 6.433125 3.9590625 6.433125 4.9375 6.875 C7 8 7 8 8 10 C6.35 9.67 4.7 9.34 3 9 C2.67 8.01 2.34 7.02 2 6 C0.02 6 -1.96 6 -4 6 C-3.34 5.67 -2.68 5.34 -2 5 C-1.27840576 3.35636866 -0.60648579 1.68949614 0 0 Z " fill="#654B31" transform="translate(121,21)"/>
<path d="M0 0 C0.99 0.33 1.98 0.66 3 1 C1.3943662 11.88028169 1.3943662 11.88028169 -3 16 C-3.66 16 -4.32 16 -5 16 C-4.34 14.02 -3.68 12.04 -3 10 C-2.34 10 -1.68 10 -1 10 C-0.67 6.7 -0.34 3.4 0 0 Z " fill="#281100" transform="translate(140,149)"/>
<path d="M0 0 C0.99 0.33 1.98 0.66 3 1 C2.34 1 1.68 1 1 1 C0.67 1.99 0.34 2.98 0 4 C-0.99 4 -1.98 4 -3 4 C-3.33 4.99 -3.66 5.98 -4 7 C-7.63 7 -11.26 7 -15 7 C-14.67 6.34 -14.34 5.68 -14 5 C-12.109375 4.7265625 -12.109375 4.7265625 -9.75 4.625 C-5.32650425 4.25988606 -3.35027706 2.95612682 0 0 Z " fill="#9C6F50" transform="translate(108,189)"/>
<path d="M0 0 C3.3 0.33 6.6 0.66 10 1 C8.35 2.65 6.7 4.3 5 6 C3.02 5.01 1.04 4.02 -1 3 C-0.67 2.01 -0.34 1.02 0 0 Z " fill="#DDC4AC" transform="translate(55,4)"/>
<path d="M0 0 C0 3 0 3 -1.6875 5.125 C-4.84489559 7.68505048 -7.06299562 8.15871172 -11.09765625 7.828125 C-13.07023947 7.59155417 -15.03600045 7.29959315 -17 7 C-17 6.67 -17 6.34 -17 6 C-16.35933594 5.98582031 -15.71867187 5.97164062 -15.05859375 5.95703125 C-8.46465756 5.59343119 -5.03699241 4.27049357 0 0 Z " fill="#8A5E3F" transform="translate(81,190)"/>
<path d="M0 0 C0.66 0.99 1.32 1.98 2 3 C1.67 3.33 1.34 3.66 1 4 C0.66756921 8.73225005 0.81106725 13.39288558 2 18 C1.67 17.34 1.34 16.68 1 16 C0.01 16 -0.98 16 -2 16 C-1.85890014 13.89551062 -1.71195825 11.7914123 -1.5625 9.6875 C-1.48128906 8.51574219 -1.40007813 7.34398437 -1.31640625 6.13671875 C-1 3 -1 3 0 0 Z " fill="#67665D" transform="translate(26,50)"/>
<path d="M0 0 C3.57231298 5.35846947 3.12223971 10.765775 3 17 C2.34 16.67 1.68 16.34 1 16 C1 13.36 1 10.72 1 8 C0.01 8.33 -0.98 8.66 -2 9 C-1.34 6.03 -0.68 3.06 0 0 Z " fill="#6C6258" transform="translate(139,49)"/>
<path d="M0 0 C1.8141927 0.28094582 3.62635001 0.57506433 5.4375 0.875 C6.95150391 1.11863281 6.95150391 1.11863281 8.49609375 1.3671875 C9.32238281 1.57601562 10.14867187 1.78484375 11 2 C11.33 2.66 11.66 3.32 12 4 C10.04196493 4.05389087 8.08351091 4.09274217 6.125 4.125 C5.03445312 4.14820313 3.94390625 4.17140625 2.8203125 4.1953125 C0 4 0 4 -2 2 C-1.34 2 -0.68 2 0 2 C0 1.34 0 0.68 0 0 Z " fill="#7F5436" transform="translate(38,158)"/>
<path d="M0 0 C0.33 0.66 0.66 1.32 1 2 C-4.42045455 8.92613636 -4.42045455 8.92613636 -8 10 C-8.99 9.67 -9.98 9.34 -11 9 C-10.34 9 -9.68 9 -9 9 C-9 8.01 -9 7.02 -9 6 C-7.35 6 -5.7 6 -4 6 C-3.67 5.01 -3.34 4.02 -3 3 C-2.34 3 -1.68 3 -1 3 C-0.67 2.01 -0.34 1.02 0 0 Z " fill="#2B1103" transform="translate(116,195)"/>
<path d="M0 0 C0.33 0.66 0.66 1.32 1 2 C-2.32307692 7.78461538 -2.32307692 7.78461538 -5.75 8.875 C-6.4925 8.91625 -7.235 8.9575 -8 9 C-7.6875 7.0625 -7.6875 7.0625 -7 5 C-6.01 4.67 -5.02 4.34 -4 4 C-2.62804426 2.70644173 -1.28817344 1.37701298 0 0 Z " fill="#8C6041" transform="translate(112,188)"/>
<path d="M0 0 C-2.88415883 1.44207941 -5.41721528 1.09394887 -8.625 1.0625 C-9.81351562 1.05347656 -11.00203125 1.04445312 -12.2265625 1.03515625 C-13.14179687 1.02355469 -14.05703125 1.01195312 -15 1 C-14.67 0.34 -14.34 -0.32 -14 -1 C-11.85546875 -1.484375 -11.85546875 -1.484375 -9.1875 -1.75 C-7.87845703 -1.89695313 -7.87845703 -1.89695313 -6.54296875 -2.046875 C-3.79198442 -1.99616561 -2.32873426 -1.41135409 0 0 Z " fill="#7E5436" transform="translate(130,161)"/>
<path d="M0 0 C0.91007812 0.00902344 1.82015625 0.01804687 2.7578125 0.02734375 C3.45648438 0.03894531 4.15515625 0.05054687 4.875 0.0625 C4.875 0.7225 4.875 1.3825 4.875 2.0625 C1.245 2.7225 -2.385 3.3825 -6.125 4.0625 C-6.455 3.0725 -6.785 2.0825 -7.125 1.0625 C-4.60024538 -0.19987731 -2.81299534 -0.03606404 0 0 Z " fill="#C5A995" transform="translate(17.125,65.9375)"/>
<path d="M0 0 C1.32 0.33 2.64 0.66 4 1 C4 1.66 4 2.32 4 3 C8.62 3.66 13.24 4.32 18 5 C18 5.33 18 5.66 18 6 C11.78522336 6.38049653 7.56351645 5.8385288 2 3 C1.34 2.67 0.68 2.34 0 2 C0 1.34 0 0.68 0 0 Z " fill="#392204" transform="translate(28,162)"/>
<path d="M0 0 C-0.33 0.66 -0.66 1.32 -1 2 C-5.29 2 -9.58 2 -14 2 C-9.35676153 -1.09549231 -5.35112092 -1.41647318 0 0 Z " fill="#805537" transform="translate(28,141)"/>
<path d="M0 0 C3.39417765 3.12621626 5.6062718 5.56541027 7 10 C4.525 9.01 4.525 9.01 2 8 C2.33 7.01 2.66 6.02 3 5 C2.01 5 1.02 5 0 5 C0 3.35 0 1.7 0 0 Z " fill="#948070" transform="translate(129,32)"/>
<path d="M0 0 C-3.68087353 2.45391569 -6.44355588 2.22802759 -10.6875 2.125 C-11.7403418 2.11146484 -11.7403418 2.11146484 -12.81445312 2.09765625 C-14.54311525 2.07413704 -16.27160145 2.03826713 -18 2 C-18 1.67 -18 1.34 -18 1 C-15.75152519 0.63627613 -13.50113812 0.28435904 -11.25 -0.0625 C-9.99703125 -0.25972656 -8.7440625 -0.45695313 -7.453125 -0.66015625 C-4.49983411 -0.95080818 -2.7397586 -0.98935727 0 0 Z " fill="#9B6D4D" transform="translate(132,156)"/>
<path d="M0 0 C0.66 0 1.32 0 2 0 C3 7.625 3 7.625 3 11 C2.01 10.67 1.02 10.34 0 10 C0 6.66666667 0 3.33333333 0 0 Z " fill="#B6AC91" transform="translate(138,57)"/>
<path d="M0 0 C1.98 0.495 1.98 0.495 4 1 C4.36923077 8.50769231 4.36923077 8.50769231 2.5 11 C2.005 11.33 1.51 11.66 1 12 C1.33 9.36 1.66 6.72 2 4 C1.01 4 0.02 4 -1 4 C-0.67 2.68 -0.34 1.36 0 0 Z " fill="#331806" transform="translate(123,14)"/>
<path d="M0 0 C0.94875 0.309375 1.8975 0.61875 2.875 0.9375 C7.50938425 2.27928271 12.20552041 2.63342007 17 3 C17 3.33 17 3.66 17 4 C4.33029613 4.3690205 4.33029613 4.3690205 -1 2 C-0.67 1.34 -0.34 0.68 0 0 Z " fill="#381F08" transform="translate(87,202)"/>
<path d="M0 0 C1.98 0.99 1.98 0.99 4 2 C4 2.66 4 3.32 4 4 C4.99 4.33 5.98 4.66 7 5 C6.67 6.32 6.34 7.64 6 9 C0.42857143 3.85714286 0.42857143 3.85714286 0 0 Z " fill="#E0C6AC" transform="translate(154,71)"/>
<path d="M0 0 C3.48330216 0.64505596 6.09432866 1.98217268 9 4 C9 4.66 9 5.32 9 6 C5.21213403 5.4739075 2.82847776 4.61896089 0 2 C0 1.34 0 0.68 0 0 Z " fill="#311C06" transform="translate(51,199)"/>
<path d="M0 0 C0.99 0.33 1.98 0.66 3 1 C3 1.66 3 2.32 3 3 C2.01 3.33 1.02 3.66 0 4 C-1.37195574 5.29355827 -2.71182656 6.62298702 -4 8 C-4.66 7.67 -5.32 7.34 -6 7 C-6 6.01 -6 5.02 -6 4 C-4.7934375 3.566875 -4.7934375 3.566875 -3.5625 3.125 C-0.8673532 2.26737432 -0.8673532 2.26737432 0 0 Z " fill="#9D7152" transform="translate(80,185)"/>
<path d="M0 0 C0.99 0 1.98 0 3 0 C2.979375 1.03125 2.95875 2.0625 2.9375 3.125 C2.99276661 6.55152969 3.34550715 9.64572414 4 13 C1.8206856 11.24135754 1.06313581 10.30604 0.48828125 7.51953125 C0.43027344 6.62621094 0.37226563 5.73289063 0.3125 4.8125 C0.24675781 3.91144531 0.18101563 3.01039063 0.11328125 2.08203125 C0.07589844 1.39496094 0.03851562 0.70789063 0 0 Z " fill="#260E00" transform="translate(24,149)"/>
<path d="M0 0 C1.485 0.99 1.485 0.99 3 2 C2.67 2.33 2.34 2.66 2 3 C1.86431681 6.66344611 1.83538574 9.50615721 3 13 C2.34 13 1.68 13 1 13 C-1.32845886 9.36178302 -1.23553948 6.23971058 -1 2 C-0.67 1.34 -0.34 0.68 0 0 Z " fill="#1A0A00" transform="translate(40,13)"/>
<path d="M0 0 C1.32 0.66 2.64 1.32 4 2 C4 3.65 4 5.3 4 7 C2.68 7 1.36 7 0 7 C-0.93423645 3.98968256 -1.04449911 3.13349732 0 0 Z " fill="#D7B9A6" transform="translate(122,7)"/>
<path d="M0 0 C2 2 2 2 2.125 5.125 C2.08375 6.07375 2.0425 7.0225 2 8 C0.68 8 -0.64 8 -2 8 C-1.125 1.125 -1.125 1.125 0 0 Z " fill="#532C0B" transform="translate(115,181)"/>
<path d="M0 0 C0.33 0 0.66 0 1 0 C1.56359649 9.58114035 1.56359649 9.58114035 -2 14 C-2.33 14 -2.66 14 -3 14 C-3 12.35 -3 10.7 -3 9 C-2.34 9 -1.68 9 -1 9 C-0.67 6.03 -0.34 3.06 0 0 Z " fill="#301001" transform="translate(165,129)"/>
<path d="M0 0 C-1.04874998 2.62187494 -1.64931313 3.79371361 -4.125 5.25 C-4.74375 5.4975 -5.3625 5.745 -6 6 C-6.33 4.68 -6.66 3.36 -7 2 C-4 0 -4 0 0 0 Z " fill="#E2C7B1" transform="translate(50,27)"/>
<path d="M0 0 C0.598125 0.165 1.19625 0.33 1.8125 0.5 C4.11344336 1.1114124 4.11344336 1.1114124 7 1 C7.33 1.99 7.66 2.98 8 4 C5.69 4 3.38 4 1 4 C0.67 2.68 0.34 1.36 0 0 Z " fill="#5C3713" transform="translate(42,23)"/>
<path d="M0 0 C2.625 0.375 2.625 0.375 5 1 C4.34 2.32 3.68 3.64 3 5 C2.34 5 1.68 5 1 5 C0.67 5.66 0.34 6.32 0 7 C-0.66 5.35 -1.32 3.7 -2 2 C-1.34 1.34 -0.68 0.68 0 0 Z " fill="#DEC9B2" transform="translate(63,9)"/>
<path d="M0 0 C0.66 0.66 1.32 1.32 2 2 C2.66 1.34 3.32 0.68 4 0 C4 2.31 4 4.62 4 7 C2.68 7 1.36 7 0 7 C0 4.69 0 2.38 0 0 Z " fill="#9B8E82" transform="translate(162,81)"/>
<path d="M0 0 C1.17571451 3.67410785 1.07366746 7.16929183 1 11 C-0.5625 9.9375 -0.5625 9.9375 -2 8 C-1.55555556 1.55555556 -1.55555556 1.55555556 0 0 Z " fill="#A19381" transform="translate(4,71)"/>
<path d="M0 0 C2.0625 1.6875 2.0625 1.6875 4 4 C3.75 6.75 3.75 6.75 3 9 C3.66 9.33 4.32 9.66 5 10 C4.34 10.66 3.68 11.32 3 12 C2.49663233 10.37604003 1.99741024 8.75079459 1.5 7.125 C1.2215625 6.22007813 0.943125 5.31515625 0.65625 4.3828125 C0 2 0 2 0 0 Z " fill="#DECEBB" transform="translate(134,50)"/>
<path d="M0 0 C0.66 0.33 1.32 0.66 2 1 C0.84826645 3.46800047 -0.04783565 5.04783565 -2 7 C-2.99 6.67 -3.98 6.34 -5 6 C-3.35 4.02 -1.7 2.04 0 0 Z " fill="#8C5F41" transform="translate(157,134)"/>
<path d="M0 0 C0.66 0.33 1.32 0.66 2 1 C1.34 2.32 0.68 3.64 0 5 C-2.97 4.505 -2.97 4.505 -6 4 C-4 2.66666667 -2 1.33333333 0 0 Z " fill="#895C3E" transform="translate(132,155)"/>
<path d="M0 0 C1.46067199 0.45082469 2.91848032 0.91093537 4.375 1.375 C5.18710938 1.63023437 5.99921875 1.88546875 6.8359375 2.1484375 C9 3 9 3 11 5 C4.6 4.50769231 4.6 4.50769231 1.5625 1.9375 C1.046875 1.298125 0.53125 0.65875 0 0 Z " fill="#321C02" transform="translate(5,144)"/>
<path d="M0 0 C3.3 0 6.6 0 10 0 C9.67 0.99 9.34 1.98 9 3 C2.84765625 2.4140625 2.84765625 2.4140625 1 2 C0.67 1.34 0.34 0.68 0 0 Z " fill="#C0987A" transform="translate(84,19)"/>
<path d="M0 0 C1.22589844 0.29197266 1.22589844 0.29197266 2.4765625 0.58984375 C3.41628906 0.82380859 3.41628906 0.82380859 4.375 1.0625 C4.375 1.3925 4.375 1.7225 4.375 2.0625 C2.91707116 2.11649736 1.45857288 2.15529177 0 2.1875 C-0.81210938 2.21070313 -1.62421875 2.23390625 -2.4609375 2.2578125 C-4.625 2.0625 -4.625 2.0625 -6.625 0.0625 C-3.99249612 -1.25375194 -2.82320944 -0.68563658 0 0 Z " fill="#7B5133" transform="translate(97.625,197.9375)"/>
<path d="M0 0 C3.63 0 7.26 0 11 0 C11.33 1.65 11.66 3.3 12 5 C11.67 4.34 11.34 3.68 11 3 C8.42048126 2.30906104 8.42048126 2.30906104 5.4375 1.875 C4.42558594 1.70742187 3.41367187 1.53984375 2.37109375 1.3671875 C1.58863281 1.24601563 0.80617187 1.12484375 0 1 C0 0.67 0 0.34 0 0 Z " fill="#8C6041" transform="translate(41,159)"/>
<path d="M0 0 C4.67692308 1.47692308 4.67692308 1.47692308 6.3125 4.125 C6.539375 4.74375 6.76625 5.3625 7 6 C3.75728494 5.4409112 2.06942576 4.5867822 0 2 C0 1.34 0 0.68 0 0 Z " fill="#867464" transform="translate(156,68)"/>
<path d="M0 0 C1.125 3.75 1.125 3.75 0 6 C-0.66 6 -1.32 6 -2 6 C-2 7.32 -2 8.64 -2 10 C-2.66 10 -3.32 10 -4 10 C-3.52449439 8.51965236 -3.04448784 7.04074979 -2.5625 5.5625 C-2.29566406 4.73878906 -2.02882813 3.91507813 -1.75390625 3.06640625 C-1 1 -1 1 0 0 Z " fill="#6D6150" transform="translate(31,39)"/>
<path d="M0 0 C2 2 2 2 2.125 4.625 C2.08375 5.40875 2.0425 6.1925 2 7 C1.34 6.01 0.68 5.02 0 4 C-0.99 5.32 -1.98 6.64 -3 8 C-2.25 2.25 -2.25 2.25 0 0 Z " fill="#432300" transform="translate(3,125)"/>
<path d="M0 0 C1.74627478 2.61941217 2.38722388 4.03824877 3 7 C2.34 7 1.68 7 1 7 C0.34 7.99 -0.32 8.98 -1 10 C-0.67 6.7 -0.34 3.4 0 0 Z " fill="#4C2300" transform="translate(162,122)"/>
<path d="M0 0 C0.66 0 1.32 0 2 0 C2.75 1.75 2.75 1.75 3 4 C1.0625 6.25 1.0625 6.25 -1 8 C-1.04241723 5.66705225 -1.04092937 3.33297433 -1 1 C-0.67 0.67 -0.34 0.34 0 0 Z " fill="#5C3913" transform="translate(42,15)"/>
<path d="M0 0 C0.66 1.32 1.32 2.64 2 4 C-0.66666667 4 -3.33333333 4 -6 4 C-2.25 0 -2.25 0 0 0 Z " fill="#A89185" transform="translate(66,6)"/>
<path d="M0 0 C0 1.98 0 3.96 0 6 C-2.475 5.01 -2.475 5.01 -5 4 C-1.125 0 -1.125 0 0 0 Z " fill="#E6D0B9" transform="translate(29,68)"/>
<path d="M0 0 C0.66 1.32 1.32 2.64 2 4 C-0.475 5.485 -0.475 5.485 -3 7 C-3 5.68 -3 4.36 -3 3 C-2.34 3 -1.68 3 -1 3 C-0.67 2.01 -0.34 1.02 0 0 Z " fill="#D4BAAA" transform="translate(32,42)"/>
</svg>
